<?xml version="1.0" encoding="utf-8"?>
<!-- Generator: Adobe Illustrator 26.3.1, SVG Export Plug-In . SVG Version: 6.00 Build 0)  -->
<svg version="1.1"
	 id="Studio_Ghibli" xmlns:cc="http://creativecommons.org/ns#" xmlns:rdf="http://www.w3.org/1999/02/22-rdf-syntax-ns#" xmlns:dc="http://purl.org/dc/elements/1.1/" xmlns:svg="http://www.w3.org/2000/svg"
	 xmlns="http://www.w3.org/2000/svg" xmlns:xlink="http://www.w3.org/1999/xlink" x="0px" y="0px" viewBox="0 0 300 144.3"
	 style="enable-background:new 0 0 300 144.3;" xml:space="preserve">
<style type="text/css">
	.st0{fill:#FFFFFF;}
</style>
<g id="layer1" transform="translate(35.714285,-371.61926)">
	<g id="g11653" transform="translate(191.39064,-942.17025)">
		<g id="g6325" transform="matrix(6.1229238,0,0,-6.1229238,-3403.6931,1737.9985)">
			<g>
				<g id="g6327">
					<g id="g6333" transform="translate(538.4872,48.883896)">
						<path id="path6335" class="st0" d="M0,0c-0.1,0.2-0.3,0.3-0.5,0.3C-0.7,0.3-1,0.1-1-0.2c0-0.3,0.2-0.4,0.4-0.5l0.2-0.1
							c0.4-0.2,0.8-0.4,0.8-1c0-0.6-0.4-1-1-1c-0.5,0-0.9,0.4-1,0.9l0.4,0.1c0-0.4,0.3-0.6,0.6-0.6S0-2.1,0-1.7
							c0,0.4-0.3,0.5-0.5,0.6L-0.7-1c-0.4,0.2-0.7,0.4-0.7,0.8c0,0.5,0.4,0.9,0.9,0.9c0.3,0,0.6-0.2,0.8-0.5L0,0z"/>
					</g>
					<g id="g6337" transform="translate(540.1411,46.216507)">
						<path id="path6339" class="st0" d="M0,0h-0.4v2.9h-0.7v0.4h1.8V2.9H0V0z"/>
					</g>
					<g id="g6341" transform="translate(541.505,49.508102)">
						<path id="path6343" class="st0" d="M0,0v-1.9c0-0.5,0.2-1,0.7-1s0.7,0.5,0.7,1V0h0.4v-2.1c0-0.7-0.4-1.3-1.1-1.3
							s-1.1,0.6-1.1,1.3l0,2.1H0z"/>
					</g>
					<g id="g6345" transform="translate(544.2576,46.591904)">
						<path id="path6347" class="st0" d="M0,0h0.1c0.8,0,1.5,0.3,1.5,1.3c0,1-0.7,1.3-1.5,1.3H0V0z M-0.4,2.9h0.6
							C1.2,2.9,2,2.4,2,1.3c0-1.1-0.8-1.7-1.7-1.7h-0.6V2.9z"/>
					</g>
					<path id="path6349" class="st0" d="M547,46.2h-0.4v3.3h0.4V46.2z"/>
					<g id="g6351" transform="translate(550.1942,47.862396)">
						<path id="path6353" class="st0" d="M0,0c0,0.7-0.5,1.3-1.2,1.3C-2,1.3-2.5,0.7-2.5,0c0-0.8,0.6-1.3,1.2-1.3
							C-0.6-1.3,0-0.8,0,0 M0.4,0c0-1-0.7-1.7-1.6-1.7C-2.1-1.7-2.8-1-2.8,0c0,0.9,0.7,1.7,1.6,1.7C-0.3,1.7,0.4,0.9,0.4,0"/>
					</g>
					<g id="g6355" transform="translate(554.93491,47.875397)">
						<path id="path6357" class="st0" d="M0,0v-0.1C0-1-0.6-1.7-1.5-1.7C-2.3-1.7-3-0.9-3,0c0,0.9,0.7,1.7,1.6,1.7
							c0.5,0,1-0.2,1.3-0.6l-0.3-0.3c-0.2,0.3-0.6,0.5-1,0.5c-0.7,0-1.2-0.6-1.2-1.3c0-0.7,0.5-1.3,1.2-1.3c0.5,0,1,0.4,1,1h-0.8V0
							L0,0z"/>
					</g>
					<g id="g6359" transform="translate(557.1321,48.181107)">
						<path id="path6361" class="st0" d="M0,0v1.3h0.4V-2H0v1.6h-1.5V-2h-0.4v3.3h0.4l0-1.3H0z"/>
					</g>
					<path id="path6363" class="st0" d="M558.4,46.2h-0.4v3.3h0.4V46.2z"/>
					<g id="g6365" transform="translate(559.37019,46.583298)">
						<path id="path6367" class="st0" d="M0,0h0.3C0.6,0,1,0.1,1,0.6C1,1,0.6,1.1,0.2,1.1H0V0z M0,1.5L0,1.5c0.5,0,0.8,0.1,0.8,0.6
							c0,0.5-0.3,0.5-0.7,0.5H0V1.5z M-0.4,2.9H0c0.6,0,1.1-0.2,1.1-0.9c0-0.2-0.1-0.5-0.3-0.6v0c0.4-0.1,0.6-0.4,0.6-0.8
							c0-0.7-0.5-0.9-1.1-0.9h-0.7C-0.4-0.4-0.4,2.9-0.4,2.9z"/>
					</g>
					<g id="g6369" transform="translate(561.5876,46.591904)">
						<path id="path6371" class="st0" d="M0,0h0.9v-0.4h-1.3v3.3H0V0z"/>
					</g>
					<path id="path6373" class="st0" d="M563.1,46.2h-0.4v3.3h0.4V46.2z"/>
					<g id="g6375" transform="translate(532.7198,51.701706)">
						<path id="path6377" class="st0" d="M0,0c0.9,0.4,2,1.4,2.5,2.7H0.2v0.5h2.9C3.1,3,2.9,2.2,2.3,1.3C2.6,1.1,3.2,0.6,3.7,0
							L3.3-0.4C3.2-0.2,2.9,0.2,2,1c-0.3-0.4-0.9-1-1.7-1.4L0,0z"/>
					</g>
					<g id="g6379" transform="translate(537.9548,53.584793)">
						<path id="path6381" class="st0" d="M0,0c0.2-0.1,0.5-0.2,1-0.6c0.4,0.5,0.5,1,0.5,1.2H0c-0.4-0.6-0.8-0.9-1.1-1.1l-0.3,0.4
							c0.7,0.4,1.1,1,1.4,1.8l0.5-0.1C0.4,1.3,0.4,1.2,0.3,1h1.8C2,0.3,1.6-1.8-0.9-2.4L-1.2-2c0.3,0.1,1,0.2,1.8,0.9
							c-0.4,0.4-0.8,0.6-1,0.7L0,0z"/>
					</g>
					<g id="g6383" transform="translate(540.39349,51.852997)">
						<path id="path6385" class="st0" d="M0,0c1.6,0.1,2.3,0.7,2.9,2.5l0.5-0.2C2.8,0.5,2.1-0.3,0.1-0.6L0,0z M3.2,2.7
							C3.1,3.2,3,3.3,3,3.4l0.3,0.1C3.5,3.3,3.5,3,3.6,2.8L3.2,2.7z M2.6,2.6C2.5,3,2.5,3.1,2.4,3.4l0.4,0.1C2.8,3.2,2.9,3.1,3,2.7
							L2.6,2.6z M1,1.1C0.5,1.4,0,1.6-0.2,1.7L0,2.1c0.2,0,0.8-0.3,1.2-0.5L1,1.1z M1.3,2.2C0.9,2.4,0.5,2.6,0.1,2.7l0.2,0.5
							c0.6-0.2,1-0.4,1.2-0.5L1.3,2.2z"/>
					</g>
					<g id="g6387" transform="translate(548.24699,51.852997)">
						<path id="path6389" class="st0" d="M0,0c1.6,0.1,2.3,0.7,2.9,2.5l0.5-0.2C2.8,0.5,2.1-0.3,0.1-0.6L0,0z M3.2,2.7
							C3.1,3.2,3,3.3,3,3.4l0.3,0.1C3.5,3.3,3.5,3,3.6,2.8L3.2,2.7z M2.6,2.6C2.5,3,2.5,3.1,2.4,3.4l0.4,0.1C2.8,3.2,2.9,3.1,3,2.7
							L2.6,2.6z M1,1.1C0.5,1.4,0,1.6-0.2,1.7L0,2.1c0.2,0,0.8-0.3,1.2-0.5L1,1.1z M1.3,2.2C0.9,2.4,0.5,2.6,0.1,2.7l0.2,0.5
							c0.6-0.2,1-0.4,1.2-0.5L1.3,2.2z"/>
					</g>
					<g id="g6391" transform="translate(555.505,54.720993)">
						<path id="path6393" class="st0" d="M0,0c0,0.2-0.1,0.5-0.2,0.7l0.4,0.1c0.1-0.2,0.1-0.4,0.2-0.6L0,0z M-0.5,0.7
							c0.1-0.2,0.1-0.3,0.2-0.6l-0.1,0v0h0.3c-0.1-2-1-3.1-2.6-3.5L-3-3c0.7,0.1,2.1,0.4,2.3,2.5h-2.7V0h2.7c0,0.2-0.1,0.4-0.2,0.6
							C-0.8,0.6-0.5,0.7-0.5,0.7z"/>
					</g>
					<g id="g6395" transform="translate(558.9539,53.346497)">
						<path id="path6397" class="st0" d="M0,0c0-0.7-0.1-1.3-0.6-1.7C-1-2-1.4-2.1-2.3-2.2l-0.2,0.5c1.1,0.1,1.9,0.3,1.9,1.4v2
							l0.5,0V0z M-2.2-0.8h-0.5v2.5h0.5C-2.2,1.7-2.2-0.8-2.2-0.8z"/>
					</g>
					<g id="g6399" transform="translate(561.7126,55.307404)">
						<path id="path6401" class="st0" d="M0,0c0-0.2-0.1-0.3-0.2-0.6h1.8V-1H0.2v-0.7h1.3v-0.5H0.2v-0.7h1.3v-0.4H0.2v-1h-0.5V-1
							h-0.2C-0.7-1.6-0.9-1.9-1-2l-0.3,0.4c0.5,0.5,0.7,1.2,0.8,1.7L0,0z M-1.8-1.9L-1.8-1.9C-2-2.1-2.1-2.2-2.2-2.3l-0.2,0.5
							c0.5,0.5,0.8,1,1,1.9L-1,0c-0.1-0.2-0.2-0.6-0.4-1.1v-3.2h-0.5C-1.8-4.3-1.8-1.9-1.8-1.9z"/>
					</g>
					<path id="path6403" class="st0" d="M564.6,54h2.1v0.8h-2.1V54z M564.2,55.2h2.9v-1.6h-2.9V55.2z M566.2,51.7h0.9v1.1h-0.9V51.7
						z M563.8,53.2h1.7v-2.1H565v0.2h-0.8v-0.2h-0.4V53.2L563.8,53.2z M564.2,51.7h0.8v1.1h-0.8V51.7z M565.8,53.2h1.7v-2.2h-0.4
						v0.2h-0.9v-0.2h-0.4V53.2z"/>
					<g id="g6405" transform="translate(544.1658,51.982895)">
						<path id="path6407" class="st0" d="M0,0c1.3,0.9,1.7,1.8,1.8,1.9L0,1.9v0.5h2.1v0.8h0.5V2.4h1V1.9h-1l0-2.7H2.1l0,2.3
							c0,0-0.4-0.9-1.8-2L0,0z"/>
					</g>
					<g id="g6409" transform="translate(532.5797,50.402801)">
						<path id="path6411" class="st0" d="M0,0h35.2"/>
					</g>
					<g id="g6413" transform="translate(532.5797,50.431793)">
						<path id="path6415" class="st0" d="M0,0h35.2v-0.1L0,0"/>
					</g>
					<g id="g6417" transform="translate(532.9666,62.316498)">
						<path id="path6419" class="st0" d="M0,0L0,0L0,0l-0.3-0.1l-0.2,0l0,0L-0.4,0C-0.3,0-0.1,0,0,0L0,0z"/>
					</g>
					<g id="g6421" transform="translate(527.9642,57.676102)">
						<path id="path6423" class="st0" d="M0,0L0,0l-0.1-0.1l0-0.1l-0.1-0.1l-0.1-0.1c-0.1-0.1-0.2-0.2-0.4-0.2l-0.2,0
							c-0.1,0-0.2,0-0.3,0.1l-0.1,0c-0.1,0.1-0.2,0.1-0.2,0.3l0,0h0l0,0.1l0,0l0,0.2v0h0l0,0.2l0,0l0,0h0l0,0.1h0l0,0v0.2l0,0l0,0
							l0,0.1h0l0,0h0l0,0v0h0l0,0h0l0.1,0.1l0,0.1c0.1,0.1,0.2,0.1,0.3,0.2l0.2,0.1c0.1,0,0.2,0,0.3,0l0.2-0.1l0.1-0.1h0l0,0h0
							l0-0.1C-0.1,0.7,0,0.5,0,0.1l0,0h0V0z M0.3,0L0.2,0.1l0,0l0,0l0,0.1h0l0,0.2h0l0,0.1l0,0.1l0,0.1h0l0,0.1h0l0,0.1l0,0.1l0,0.1
							h0l0,0.1c-0.2,0.4-0.2,0.5-0.6,0.5l-0.1,0c-0.1,0-0.3,0-0.4,0c-0.1,0-0.1,0-0.2-0.1l-0.2-0.1l0-0.1l0,0l0-0.1l0,0l0,0h0l0,0v0
							l0,0h0l0-0.1h0v0l0-0.1h0l0-0.1h0l0-0.1h0l0-0.1h0l0-0.1h0v0h0l0-0.1l-0.1-0.1h0l0,0l0,0l0.1-0.1h0v0l0-0.1l0-0.1l0-0.1l0,0h0
							l0,0l0-0.1l0,0l0.1-0.1l0.1-0.1l0.1-0.1c0.1,0,0.3-0.1,0.4-0.1c0.1,0,0.2,0,0.3,0.1l0.1,0l0.1,0l0.2,0.1l0.1,0.1
							C-0.1-0.4-0.1-0.3,0-0.2l0.1,0.1l0,0L0.3,0L0.3,0"/>
					</g>
					<g id="g6425" transform="translate(524.65199,58.838303)">
						<path id="path6427" class="st0" d="M0,0L0,0L0,0L0,0L0,0l0-0.1h0l0-0.1h0l0-0.1h0l0,0l0-0.1h0v0h0l0-0.1l0,0l0,0h0l0,0.1h0
							l0,0.1h0l0,0h0l0,0.1h0L0,0L0,0L0,0L0,0L0,0L0,0L0,0z"/>
					</g>
					<g id="g6429" transform="translate(524.74789,58.564896)">
						<path id="path6431" class="st0" d="M0,0L0,0L0,0L0,0l0-0.1l-0.1,0L0,0L0,0L0,0z"/>
					</g>
					<g id="g6433" transform="translate(524.8958,58.475006)">
						<path id="path6435" class="st0" d="M0,0L0,0L0,0l0-0.1L0,0L0,0L0,0L0,0z"/>
					</g>
					<g id="g6437" transform="translate(525.1194,58.351105)">
						<path id="path6439" class="st0" d="M0,0L0,0L0,0L0,0l-0.1,0L0,0L0,0L0,0z"/>
					</g>
					<g id="g6441" transform="translate(526.7296,57.979507)">
						<path id="path6443" class="st0" d="M0,0L0,0L0,0l0,0.1L0,0L0,0L0,0 M0.1,0.1L0.1,0.1L0.1,0.1l0,0.2l0,0L0,0.4
							c-0.1,0-0.2-0.1-0.2-0.1l0,0l0,0h0v0l0,0h0l0-0.2l0-0.2l0,0l0.1-0.1l0.2,0l0,0l0.1,0.1h0l0,0C0.1-0.1,0.1,0,0.1,0.1"/>
					</g>
					<g id="g6445" transform="translate(523.3654,57.312897)">
						<path id="path6447" class="st0" d="M0,0L0,0L0,0l0.1-0.1l0-0.1l-0.2-0.1l-0.1,0.1l0,0h0l0,0.1h0l0,0l0,0.1L0,0L0,0z"/>
					</g>
					<g id="g6449" transform="translate(527.5166,55.800201)">
						<path id="path6451" class="st0" d="M0,0c-0.2,0-0.3,0-0.5,0l-0.2,0l0,0l0,0l0.4,0C-0.2,0.1-0.1,0,0,0L0,0z M3.4-0.4
							C3.3-0.4,3.1-0.4,3-0.3c-0.1,0-0.3,0.1-0.4,0l-0.1,0l-0.1,0c-0.1,0-0.2,0-0.3,0c-0.1,0.1-0.2,0-0.3,0.1C1.5-0.1,1.3,0,1.2,0
							C1.1,0,1,0,0.9,0C0.7,0,0.6,0,0.5,0l-0.2,0c-0.2,0-0.3,0-0.5,0c-0.1,0-0.3,0-0.4,0l-0.2,0l0-0.1h0l0,0l0.1-0.1
							c0.1,0,0.3-0.1,0.4,0c0.1,0,0.2,0,0.3,0c0.1,0,0.2,0,0.3,0l0.2,0c0.1,0,0.3,0,0.4,0c0.1,0,0.2,0,0.3,0l0.3,0
							c0.1,0,0.3,0,0.4,0c0.1,0,0.2,0,0.3,0l0.2,0l0.2,0l0.2,0c0.1,0,0.3,0,0.4-0.1l0.2,0l0.2,0L3.4-0.4L3.4-0.4"/>
					</g>
					<g id="g6453" transform="translate(526.0864,55.291702)">
						<path id="path6455" class="st0" d="M0,0c0.1,0,0.3,0,0.4-0.1l0.2,0l0.1,0c0.1,0,0.2,0,0.3,0l0.1-0.1v-0.1
							c-0.2,0-0.3,0.1-0.4,0.1l-0.2,0C0.2-0.2,0-0.1-0.2-0.1L-0.4,0l0,0.1l0.2,0L0,0"/>
					</g>
					<g id="g6457" transform="translate(530.765,54.142304)">
						<path id="path6459" class="st0" d="M0,0c-0.1,0-0.2,0-0.3,0c-0.1,0.1-0.3,0.1-0.5,0.2v0l-0.2,0c-0.1,0-0.2,0.1-0.3,0.1
							l-0.2,0.1C-1.7,0.4-1.9,0.5-2,0.5c-0.2,0-0.3,0.1-0.5,0.1l-0.2,0.1l0,0c0.1,0,0.2,0,0.2,0C-2.3,0.6-2.1,0.6-2,0.6l0.1,0
							c0.1,0,0.3,0,0.4-0.1c0.1,0,0.2-0.1,0.3-0.1C-1.1,0.3-1,0.3-0.8,0.2l0.3-0.1c0.1,0,0.2,0,0.3-0.1l0.1,0L0,0L0,0L0,0z M0.2,0
							L0.2,0L0,0.2c-0.1,0-0.1,0.1-0.2,0c-0.1,0-0.1,0.1-0.2,0.1c-0.2,0.1-0.3,0.1-0.5,0.1l-0.2,0.1l-0.2,0.1l-0.1,0.1l-0.2,0.1
							c-0.2,0.1-0.5,0.1-0.7,0.2c-0.1,0-0.2,0-0.3,0.1C-3.1,1-3.4,1.1-3.8,1.2c-0.1,0.1-0.2,0-0.3,0.1l-0.1,0c-0.1,0-0.2,0-0.3,0.1
							l-0.1,0l-0.2,0.1c-0.1,0.1-0.2,0-0.3,0l0,0l0-0.1l0.1,0l0.2,0c0.1,0,0.3-0.1,0.4-0.1l0.1,0l0.1-0.1c0.1,0,0.2,0,0.3,0
							C-3.8,1-3.7,1-3.6,1l0,0c0.1,0,0.2-0.1,0.2-0.1l-0.1,0l-0.1-0.1l0,0c0.1,0,0.2-0.1,0.3-0.1c0.1,0,0.3-0.1,0.4-0.1
							C-2.5,0.5-2.3,0.5-2,0.4c0.1,0,0.2-0.1,0.3-0.1l0.1,0c0.1,0,0.2-0.1,0.3-0.1c0.1,0,0.2-0.1,0.4-0.1L-0.7,0
							c0.2,0,0.3-0.1,0.5-0.1c0.1,0,0.2,0,0.3,0L0.2,0L0.2,0"/>
					</g>
					<g id="g6461" transform="translate(523.1696,54.727799)">
						<path id="path6463" class="st0" d="M0,0L0,0L0,0l-0.2-0.1l0,0.1l0,0L0,0L0,0z"/>
					</g>
					<g id="g6465" transform="translate(528.99899,53.155197)">
						<path id="path6467" class="st0" d="M0,0L0,0l-0.3,0.1l-0.2,0.1l-0.2,0.1l-0.2,0.1c-0.1,0-0.2,0.1-0.3,0.1
							c-0.1,0-0.2,0.1-0.3,0.1l-0.2,0.1c-0.1,0-0.1,0.1-0.2,0.1l-0.1,0L-2.3,1l-0.1,0.1l0,0C-2.2,1.1-2.1,1-2,1l0.1,0
							c0.1-0.1,0.3-0.1,0.4-0.1c0.1,0,0.2-0.1,0.3-0.1l0.2-0.1L-1,0.5c0.1,0,0.2-0.1,0.3-0.1l0.2-0.1l0.1,0l0.2-0.1L0,0L0,0z
							 M0.5-0.2L0.4-0.1L0.3,0L0,0.2c-0.1,0.1-0.3,0.1-0.4,0.2l-0.2,0.1l-0.1,0l-0.1,0c-0.1,0-0.1,0.1-0.2,0.1L-1,0.7l-0.2,0.1
							l-0.2,0.1l-0.2,0.1C-1.7,1-1.8,1-1.9,1.1c-0.1,0-0.2,0.1-0.3,0.1l0,0l-0.2,0l0-0.1l0,0h0l0-0.1l0.1-0.1
							c0.2-0.1,0.3-0.1,0.4-0.2l0.2-0.1c0.1-0.1,0.2-0.1,0.3-0.1c0.1-0.1,0.2-0.1,0.3-0.1c0.1,0,0.2-0.1,0.4-0.1l0,0l0.2-0.1L-0.3,0
							C-0.2,0-0.1,0,0-0.1c0.1,0,0.2-0.1,0.3-0.1l0.1,0L0.5-0.2L0.5-0.2L0.5-0.2"/>
					</g>
					<g id="g6469" transform="translate(525.3632,52.206696)">
						<path id="path6471" class="st0" d="M0,0L0,0L0,0c0.1-0.1,0.2-0.1,0.3-0.1l0.1-0.1l0,0l0,0l0.1-0.1c0.1,0,0.2-0.1,0.3-0.1
							l0.1-0.1l0-0.1l0,0l0,0l0-0.1h0C1-0.8,1.1-1,1.2-1.1l0-0.1h0c0.1-0.1,0.3-0.3,0.4-0.5l0-0.1C1.7-1.8,1.8-2,1.9-2.1l0-0.2
							l0-0.1h0l0,0l0-0.1h0l0-0.1l0,0c0-0.1,0.1-0.1,0.2-0.3l0,0l0-0.1l0,0l0-0.2l0-0.1l0,0l0,0l0.1-0.1l0.1-0.1l0,0l0-0.2h0l0-0.1
							h0l0-0.1h0l0,0h0v0h0l0-0.2l0-0.2l0-0.1l0-0.1h0v0l0-0.1l0,0h0l0-0.2l0-0.1l0-0.1h0l0-0.1h0l0,0h0l0-0.1l0,0l0,0v0.1h0l0,0.1
							l0,0.1v0h0l0,0.1L2.4-4.8l0,0.1h0l0,0v0.1h0v0.1h0l0,0.1l0,0l0,0l0,0l0,0.1h0l0,0.1l0,0.1h0v0.1h0v0.2h0v0.1h0l0,0.1h0l0,0
							L2.3-3.5L2.2-3.4L2.1-3.3l0,0h0l0,0l0,0.1L2-3L2-3h0l0,0.1l0,0l0,0L1.9-2.7h0l0,0l0,0.1l0,0l0,0h0l0,0l0,0.1l0,0h0l0,0.1l0,0
							l0,0.2h0l0,0l0,0.1l0,0.1h0l0,0l0,0.1h0l0,0C1.4-1.6,1.4-1.5,1.2-1.3L1.1-1.2h0l0,0.1C0.9-0.9,0.8-0.9,0.7-0.7L0.6-0.6h0
							L0.5-0.5L0.3-0.4l0,0h0l0,0.1c-0.1,0-0.1,0.1-0.2,0.1l-0.2,0.1l0,0.1L0,0L0,0"/>
					</g>
					<g id="g6473" transform="translate(523.1097,48.356598)">
						<path id="path6475" class="st0" d="M0,0l0-0.1h0l0,0h0l0-0.1l0,0h0l0-0.2h0l0-0.1v0l0,0l-0.1,0l0,0.1l0,0l0,0l0,0.1l0,0.1l0,0
							l-0.1,0.1l0,0l0,0.1l0,0h0l0,0.1l-0.1,0l0,0l0,0.1l-0.1,0.1c-0.1,0-0.1,0.1-0.3,0.1l-0.2-0.1v0l-0.2,0l0,0l0,0.1l0.2,0.1
							l0.1,0.1l0.1,0.1L-1,0.8l0.1,0.1L-0.7,1c0.1,0,0.2,0.1,0.3,0.1l0.1,0l0,0l0,0l0,0l0-0.1l0,0l0,0l0-0.1h0l0,0l0-0.1l0,0h0
							l0-0.1l0,0l0,0l0-0.2h0l0-0.2h0L0,0L0,0L0,0z M0.1,0.1l0,0.1l0,0.1h0l0,0.1h0l0,0.1h0l0,0l0,0.1l0,0h0l0,0.1l0,0.1h0l0,0.1
							l0,0l0,0l0,0l0,0l-0.1,0.1l-0.1,0.1c-0.2,0-0.3-0.1-0.3-0.1l-0.1-0.1L-1,1l0,0l0,0l-0.1-0.1l-0.1-0.1c-0.1,0-0.1-0.1-0.2-0.2
							l0,0c-0.1-0.1-0.1-0.2-0.2-0.3v0h0l0,0l0.1-0.1c0.2,0,0.3,0,0.5,0l0.2,0c0.1,0,0.1-0.1,0.2-0.1L-0.7,0L-0.6,0l0,0h0
							c0.1-0.1,0.2-0.2,0.2-0.3l0-0.1h0l0,0l0,0h0l0-0.1h0l0-0.1l0,0L0-0.7l0.1,0l0,0l0,0l0,0.2h0v0.1h0v0.1h0v0.1h0l0,0.1h0l0,0.1
							h0l0,0h0L0.1,0.1L0.1,0.1"/>
					</g>
					<g id="g6477" transform="translate(525.9306,45.856903)">
						<path id="path6479" class="st0" d="M0,0L0,0l-0.1,0c-0.1,0.1-0.2,0.2-0.3,0.4l0,0c-0.1,0.1-0.2,0.1-0.3,0.1l-0.2,0
							c-0.1,0-0.2,0-0.3,0l0,0l0,0h0l0,0.1l0,0l0,0l0.1,0L-1,0.9v0l0,0.1l0.1,0.1l0.1,0.1c0.1,0.1,0.1,0.1,0.3,0.2l0.1,0l0.1-0.1
							l0,0l0,0l0-0.1h0l0,0l0,0l0,0l0-0.1l0-0.1c0-0.1,0-0.2,0-0.3l0-0.1h0l0-0.2h0L0,0L0,0L0,0 M0.1,0l0,0.2l0,0.1h0l0,0.1l0,0
							l0,0.2h0v0h0v0.1l0,0.2h0l0,0.1l0,0l0,0h0l0,0.1l0,0l0,0h0l0,0l0,0l-0.1,0.1l-0.2,0.1l-0.1,0c-0.1,0-0.2-0.1-0.3-0.1v0
							l-0.1-0.1l-0.2-0.2l0,0v0l0,0l0,0l-0.1-0.1l-0.1-0.1l-0.1-0.1l0,0l-0.1-0.1V0.5l0,0c0.1-0.1,0.2-0.1,0.3-0.1l0.1,0l0.2,0l0,0
							h0l0,0h0l0,0h0l0.1-0.1v0l0.1-0.1l0,0l0.1-0.1l0,0L-0.3,0h0l0.1-0.1l0.2-0.1l0.2,0L0.1,0L0.1,0L0.1,0C0.1,0,0.1,0,0.1,0z"/>
					</g>
					<g id="g6481" transform="translate(538.7482,55.706299)">
						<path id="path6483" class="st0" d="M0,0L0,0l0-0.2l0-0.1l0-0.1h0l0-0.1h0l0-0.1h0l0-0.1h0l0,0l0-0.1h0l0-0.1l0-0.1h0l0-0.1
							h0.1l0,0.1h0l0,0l0,0.1h0l0,0.1h0l0,0.1l0,0.1l0,0.1h0l0,0.1h0l0,0.1l0,0.1l0,0l0,0.1l0,0.1h0l0,0.1l0,0L0,0L0,0L0,0L0,0
							l0.1,0.1l0,0.1l0,0.1h0l0,0.1l0,0l0,0l0,0h0l0,0.1h0l0,0.1l0,0l0,0h0l0,0.1l0,0l0,0.1l0,0h0l0,0.1l0,0h0l0,0.1h0l0,0.1l0,0
							l0,0h0l0,0.1l0,0.1l0,0l0,0.1l0,0l0,0.1h0l0,0l0,0l0,0.1h0l0,0.1l0,0l0,0h0l0,0.1h0l0,0l0,0.1l0,0h0l0,0.1l0,0l-0.1,0.1l0,0.1
							l-0.1,0.1l0,0.1l0,0.1h0l0,0.1l0,0.1l0,0h0l0,0h0l0,0h0l0,0h0l0,0.1c-0.2,0.2-0.3,0.5-0.4,0.7l0,0.1h0l0,0.1
							C-1.6,3.8-1.7,4-1.8,4l-0.1,0.1L-2,4.1L-2,4l0.2-0.1l0.2-0.1l0.1-0.1l0.1-0.1l0,0l-0.1-0.1l0,0l0,0l0,0l0,0l0.2-0.1v0h0
							c0.1-0.1,0.2-0.3,0.3-0.4l0,0h0L-1,2.8v0h0l0-0.1h0l0-0.1l0,0l0,0L-1,2.5L-1,2.4l0,0l0.1-0.1l0,0h0l0-0.1l0,0l0-0.1h0l0-0.1
							l0-0.1l0-0.1l0,0l0,0h0l0-0.1h0l0-0.1h0l0-0.1h0l0-0.1l0,0l0-0.1l0,0l0,0l0-0.1h0l0-0.1c0-0.1,0.1-0.2,0.1-0.3l0-0.1h0l0-0.1
							l0-0.1h0l0-0.1h0l0-0.1h0l0,0l0,0l0,0l0,0h0l0-0.1l0-0.1l0,0h0l0-0.1L0,0L0,0L0,0z"/>
					</g>
					<g id="g6485" transform="translate(526.6019,63.765106)">
						<path id="path6487" class="st0" d="M0,0L0,0L0,0L0,0L0,0l0-0.1l0,0l-0.1-0.1l-0.2,0.1l0,0.1l0,0l0,0l0,0l0,0.1h0v0h0l0,0.1
							l0,0l0,0.1l0.2,0L0,0.2l0-0.1h0L0,0L0,0L0,0z M0.1,0.1l0,0.1l0,0l0,0l0,0l0,0l-0.1,0.1c-0.1,0-0.2,0-0.3,0l-0.1-0.1l0-0.1
							l0-0.1h0l0-0.1h0V0.1h0l0-0.1h0l0-0.1l0,0h0l0-0.1l0.1,0l0.2,0l0,0L0-0.2l0,0v0l0,0.1h0L0.1,0.1"/>
					</g>
					<g id="g6489" transform="translate(533.0425,62.966095)">
						<path id="path6491" class="st0" d="M0,0L0,0L0,0L0,0l-0.2,0.2l0,0l-0.1,0.1l-0.1,0.1l-0.1,0.1l0,0h0l0,0l0,0l0.2-0.1
							C-0.3,0.4-0.2,0.3,0,0.2l0-0.1h0V0L0,0 M-0.1-0.4L-0.1-0.4L-0.1-0.4L-0.1-0.4L-0.1-0.4L-0.1-0.4 M-3.4,0.1L-3.4,0.1l0.1,0.1
							l0-0.1L-3.4,0.1 M-4.2,0L-4.2,0l-0.2-0.2l-0.3-0.1c-0.2,0-0.3-0.1-0.4-0.1l-0.2-0.1l-0.2-0.1l-0.1,0c-0.1,0-0.3-0.1-0.4-0.2
							l-0.2-0.1C-6.4-1-6.6-1.2-6.7-1.4l-0.1-0.1l-0.2,0.1l0,0.1l0,0L-7-1.2l0,0h0l0,0.1l0,0.1l0,0.1l0,0.1l0,0.1h0l0,0l0,0h0l0,0.1
							l0,0.1h0l0,0.1l0,0.2l0,0.1l0,0.1v0.1h0l0,0.1v0.2h0v0.1h0l0,0.1h0l0,0.1h0v0.1l0,0l0.1,0l0,0l0,0v0.1h0v0h0l0,0.1h0l0,0.1
							l0,0.1L-7.2,1l-0.1,0v0.1h0l0,0h0l0,0.1h0l0.1,0.2l0,0l0,0l0,0.1l0,0l0,0h0l0,0.1l0,0l0,0l0,0h0v0h0c0,0.1,0,0.2,0,0.3l0,0
							l0,0h0l0,0.1h0l0,0.1h0l0,0.1l0,0h0l0,0.1h0l0,0.1c0,0.1,0,0.2,0,0.4l0,0.1h0l0,0v0.1h0l0,0.1h0v0.1l0,0l0,0
							C-7,3.3-7,3.1-6.9,3l0-0.1h0l0-0.1h0l0,0l0,0l0-0.1l0,0h0V2.6h0l0-0.1l0,0h0l0,0h0v0h0v0h0V2.4h0l0-0.1h0l0-0.1h0V2.1h0l0-0.2
							h0V1.8h0l0,0l0.1,0.1v0h0V2l0,0.1v0h0l0,0.1v0.1h0l0,0.1h0l0,0.1v0.1h0l0,0.1h0l0,0h0l0,0.2h0l0,0.1v0h0l0,0.1h0l0,0.1h0
							l0,0.1h0v0.1h0v0.1h0l0,0h0l0,0.1h0l0,0.1h0l0,0.1h0l0,0l0,0l0.1-0.1l0,0l0,0l0,0l0-0.1h0l0,0l0,0l0,0l0-0.1h0l0,0l0,0l0,0
							l0-0.1h0l0,0h0l0,0l0-0.1l0,0l0,0h0l0-0.1h0l0-0.1c0-0.1,0-0.3,0.1-0.4l0.1-0.1C-5.9,2.1-5.8,2-5.7,2l0.2-0.1l0.1-0.1l0-0.1h0
							l0,0c0.1-0.1,0.1-0.2,0.2-0.4l0,0C-4.9,0.9-5,1.1-4.7,0.8l0-0.1l0.1-0.1h0l0-0.1l0-0.1h0l0-0.1h0l0,0l0-0.1l0,0l0,0l0.2-0.1V0
							L-4.2,0 M-7.3,0.6L-7.3,0.6l0,0.2l0,0.1h0l0,0.1l0,0.1l0,0l0,0l0,0l-0.1-0.1l0,0l0,0l0,0l0-0.1L-7.3,0.6L-7.3,0.6L-7.3,0.6
							 M-13.2-12.4l0.2,0.1c0.1,0.1,0.2,0.1,0.3,0.2l0.1,0l0,0l0-0.1l0-0.1h0v-0.1h0l0-0.2l0,0h0l0-0.1l0-0.1h0l0-0.2l0-0.2l0-0.1
							l0,0h0l0,0h0l0,0h0l0-0.1l0,0l0,0l-0.1,0.1l0,0l-0.1,0.1l0,0.1l0,0.1h0l0,0.1l0,0c0,0.1-0.1,0.1-0.2,0.1
							c-0.1,0-0.2-0.1-0.3-0.1l-0.1-0.1l-0.2-0.1l-0.1,0l0,0h0l0,0.1l0,0l0,0v0l0,0l0,0.1h0l0,0c0.2,0.3,0.2,0.1,0.4,0.4L-13.2-12.4
							 M-2.2,0.6L-2.2,0.6L-2.2,0.6L-2,0.6v0l-0.1,0L-2.2,0.6C-2.2,0.5-2.2,0.6-2.2,0.6z M4.2-3.3C4.1-3.2,4-3.1,3.9-3L3.9-2.8
							l-0.1,0l0,0l0,0.1L3.6-2.4C3.5-2.4,3.5-2.3,3.3-2.2L3.2-2.1l0,0l0,0l0,0v0.1L3-1.8L3-1.7L2.8-1.5c-0.1,0-0.2,0.1-0.3,0.1
							c-0.1,0-0.2,0.1-0.3,0.1L1.9-1.2L1.7-1.1L1.6-1l0,0.1L1.8-1l0.1,0l0,0.1l0,0l-0.2,0l-0.2,0L1.4-0.7l0,0l0.3,0l0.1,0
							c0.1,0,0.2-0.1,0.3-0.1l0.1,0l0,0C2-0.7,1.8-0.6,1.6-0.6L1.5-0.5l0.1,0c0.1,0,0.2,0,0.3,0c0.2,0,0.4-0.1,0.5-0.2l0.2-0.1
							l0.1,0v0.1l-0.1,0L2.4-0.5c-0.1,0-0.2,0.1-0.3,0.1C2-0.4,1.8-0.3,1.7-0.3l-0.2,0l0,0l0,0l0.2,0c0.1,0,0.2,0,0.3,0
							c0.1,0,0.3,0,0.4,0l0,0v0C2.2-0.1,2-0.1,1.8-0.1l-0.2,0l0,0L1.7,0C1.8,0.1,1.9,0.1,2,0.1c0.1,0,0.2,0,0.3,0.1l0.2,0.1l0,0
							l0.1,0.1l0,0.1l0,0.1h0l0,0.1l0,0.1l0,0.1l0,0.1l0,0l0,0.1l0,0.1v0.2l0,0c0,0.1,0,0.2,0,0.3l0,0.1l0,0.1l0,0.2l0,0.1l0,0
							c0,0.1,0,0.2,0,0.3l0,0c0,0.1,0,0.6,0,0.7l0,0.1c0,0.1,0,0.2,0,0.3l0,0l0,0.1l0,0l0,0.2l0,0l0,0V4l0,0l0,0.1l0,0.1l0,0.1
							l0,0.1l0,0.1v0.2l0,0l0,0l0,0l0,0.1h0l0,0.1l0,0l0,0.1C2.5,5.3,2.4,5.6,2.4,5.8l0,0.1c0,0.1,0,0.2-0.1,0.3l-0.1,0l-0.2,0l0,0
							l0,0l0-0.1l0,0L1.7,6L1.7,5.9L1.6,5.7l0-0.1l0-0.1l0,0l0,0c0-0.1-0.1-0.2-0.2-0.3l0-0.1L1.2,5C0.9,4.5,0.6,4,0.4,3.5l0-0.1
							l0-0.1C0.2,2.7-0.1,2.2-0.4,1.6l0,0l0-0.1l0-0.1l0-0.2C-0.4,1.1-0.3,1-0.2,0.9l0.1-0.1C-0.1,0.7,0,0.6,0,0.4v0l-0.1,0.1
							l-0.1,0.1c-0.1,0.1-0.2,0.2-0.3,0.2c0,0-0.1,0.1-0.2,0.1l0-0.1l0,0l-0.1-0.1c0.1-0.1,0.3-0.2,0.4-0.3l0.2-0.1L-0.1,0L0,0l0,0
							l0-0.1l0,0l0,0l-0.1,0L-0.3,0l-0.1,0.1c-0.1,0.1-0.2,0.1-0.3,0.2l-0.1,0l0.1-0.1C-0.6,0.1-0.5,0-0.4-0.1l0-0.1l0,0
							C-0.6-0.1-0.8,0-1,0c-0.1,0-0.2,0.1-0.3,0c-0.1,0.1-0.3,0-0.4,0.1l0,0l-0.1,0c-0.1,0-0.2,0-0.4,0l-0.1,0l-0.1,0.1l0,0.1
							c0,0.1,0.2,0,0.2,0.1c0.1,0,0.2,0.1,0.3,0.1l0,0.1l-0.2,0l0,0l0,0l0.2,0.1l0,0l-0.1,0l-0.1-0.1c-0.1,0-0.2,0-0.3,0l-0.1,0
							l-0.1-0.1c0-0.1,0-0.1,0-0.3l0-0.2l-0.1,0c-0.1,0-0.3,0-0.4,0l-0.2,0l0,0.1l0,0.1l0,0.1l0,0l0,0.2l0,0l0,0l0,0.1l0,0l0,0.1
							l0,0.1L-3,1l0,0l0,0.1l0,0.1l0,0.1l-0.2,0.1l-0.1,0.1c-0.1,0.2-0.1,0.3,0,0.5l0,0l0,0.1c0.1,0.2,0.1,0.3,0.2,0.5l0,0.1l0,0.2
							h0l0,0l0,0.1C-3.1,3.2-3,3.4-2.9,3.7l0,0.1l0,0c0.2,0.6,0.4,0.8,0.7,1.3L-2,5.3l0.1,0.1l0,0C-1.8,5.2-1.8,5-1.7,4.8l0-0.2l0,0
							l0-0.1c0-0.2,0-0.4,0.1-0.6l0-0.1c0-0.1,0-0.2,0.1-0.3l0,0V3.3l0,0c0-0.1,0-0.2,0-0.3l0-0.1l0-0.1V2.7l0-0.1l0-0.1l0,0l0-0.1
							l0,0l0-0.1l0-0.1l0,0l0,0l0-0.1l0,0l0,0l0-0.1l0,0l0-0.2h0l0-0.1l-0.1-0.2c-0.1-0.1-0.2-0.2-0.3-0.2l-0.2-0.1L-2.2,1l0-0.1
							l0,0l0-0.1l0,0c0.1,0,0.2,0,0.3,0.1l0.1,0l0.1,0L-1.8,1l-0.1,0l0,0l0.2,0.1c0.1,0.1,0.2,0.1,0.2,0.2l0,0.1
							c0.1,0.1,0.1,0.3,0,0.4v0.1l0,0.1l0,0.1v0.3l0,0l0,0.1v0.3l0,0v0.1l0,0.2l0,0l0,0.1v0.3l0,0l0,0c0,0.2,0,0.5-0.1,0.7l0,0.1
							c-0.1,0.2,0,0.2-0.1,0.3l0,0.1l0,0.1c0,0.1,0,0.2,0,0.3l0,0.1c0,0.4-0.1,0.4-0.1,0.6l0,0.1l-0.2,0L-2,5.5l-0.1-0.1l0,0l0,0
							l0,0l-0.1-0.1L-2.4,5l-0.1-0.1c-0.2-0.1-0.2-0.3-0.3-0.5l0,0l0-0.1C-2.9,4-3,3.8-3.1,3.5l0-0.1l0,0l0-0.1l0,0
							C-3.3,3-3.4,2.9-3.4,2.5l0-0.1l0,0c0-0.3-0.3-0.6-0.2-0.8l0-0.1l0,0l0.1-0.1c0.1-0.1,0.2-0.1,0.3-0.2l0.1-0.1L-3.2,1l-0.1,0.1
							c-0.1,0-0.2,0.1-0.3,0.2l-0.2,0.1l-0.1,0l0.1-0.1c0.1,0,0.2,0,0.2-0.1L-3.7,1l-0.1-0.1l0.2,0c0.1,0,0.2,0,0.3-0.1l0-0.1
							l-0.3,0l-0.1,0l0,0l0.1,0l0.2,0l0-0.1l-0.1-0.1c-0.1,0-0.2,0-0.3-0.1l0-0.1l0.1,0l0.2,0.1l0.1,0V0.3l-0.1-0.1l-0.2-0.1
							l-0.2-0.1L-3.9,0L-4,0l0,0.1l0,0.1l0,0.1l0,0l-0.1,0.1l-0.2,0l0,0l0,0.1l-0.1,0.2l0,0l0,0.1c0,0.1-0.1,0.2-0.2,0.3l-0.2,0.1
							c-0.3,0.3-0.3,0.5-0.5,0.8l-0.2,0.2c-0.2,0.1-0.3,0.1-0.4,0.3l0,0.1l0,0.1l0,0.1l0,0.1l0,0.1v0l0,0.1l0,0l0,0l0,0.1l0,0l0,0.1
							l0,0l0,0.1l0,0.1l0,0.1l0,0.1l0,0l-0.1,0.2l-0.1,0.1l0,0.1l0,0.1l0,0l0,0.1l0,0l-0.1,0l-0.1-0.1c-0.1-0.2-0.1-0.7-0.2-0.8l0,0
							l-0.1,0.1C-6.9,3.3-7,3.4-7,3.6l-0.1,0.1l-0.1,0l0-0.1l0-0.1l0-0.1l0-0.1l0-0.1l0-0.2l0,0V3.1l0-0.1V2.8l0,0l0,0V2.6l0,0
							l0-0.1c0-0.1,0.1-0.2,0.1-0.3l0-0.1c0-0.1,0-0.2,0-0.3l0-0.1h0V1.5c-0.2-0.4-0.2-0.3-0.2-0.6l0-0.1l0,0l0-0.1
							c0-0.1,0-0.3,0-0.4l0-0.1c0-0.1,0-0.2,0-0.3l0,0l0-0.1c0-0.2-0.1-0.4,0-0.6l0-0.1h0l0-0.1l0.1-0.2l0-0.1l0.1-0.1l-0.1-0.1
							l-0.1-0.1l-0.1,0l0,0l0,0l-0.1-0.1l0,0.1l0,0.1l-0.1,0l-0.1-0.1l0-0.1l0,0C-7.8-1.8-7.9-2.1-8-2.3l0-0.1l0,0
							c-0.1-0.1-0.1-0.3-0.2-0.4l-0.1-0.1l0-0.1l0,0c-0.2-0.3-0.4-0.7-0.4-1.1l0-0.1l0-0.1h0l0,0l0,0l0,0l0-0.1l0,0L-9-4.7l-0.1-0.1
							l-0.2-0.1c-0.2,0-0.4-0.1-0.6-0.2l-0.1-0.1c-0.1,0-0.2-0.1-0.3-0.2v0l0,0l0-0.1l0-0.1l0-0.1v-0.1l0-0.1l0-0.1l0-0.1l0-0.1
							l-0.1-0.2l0-0.1l0,0l-0.1-0.1l-0.1,0l-0.1,0v0l-0.1,0.1l-0.2,0l0-0.1l0.1,0l0.2-0.1l0.2-0.1l0,0l0-0.1v-0.1l0,0l0,0
							c-0.1,0-0.2-0.1-0.3-0.1c-0.1,0-0.3-0.1-0.4-0.2l-0.2-0.1l0-0.1l0-0.1l0.2,0.1l0.2,0.1c0.2,0,0.3,0.1,0.5,0.2l0,0l0-0.1l0-0.1
							l0,0l0,0l0,0l0-0.1l0-0.1l0,0l0-0.1l-0.2-0.1l-0.1-0.1l0.2,0l0.1-0.1l0-0.1l0,0l0-0.1l0,0l0-0.1l0,0l0-0.1l0,0l0-0.1l0,0
							l0-0.1c-0.1,0-0.2-0.1-0.3-0.1l-0.1-0.1l-0.1-0.1l0-0.1l0-0.1l0,0l0,0l-0.1-0.1L-11-9.1L-11-9.2l-0.1-0.2l-0.1-0.1l-0.2-0.2
							l-0.1-0.1l0,0l0,0l0,0l-0.2-0.1l-0.1-0.1c0-0.1-0.2-0.2-0.2-0.3c0-0.1-0.1-0.1-0.2-0.2c-0.1-0.1-0.2-0.2-0.3-0.2l-0.1-0.1
							l-0.1-0.1l0.1-0.1l-0.1-0.1c-0.1-0.1-0.2-0.1-0.2-0.2l-0.1-0.1l0,0l0-0.1l0,0l-0.1-0.2l0-0.1l-0.1-0.1l0-0.1l0,0l0-0.1
							l-0.1-0.1l0-0.1l0-0.1l0-0.1l0-0.1l0-0.1l-0.2-0.2l0,0l0,0l-0.1-0.2l0-0.1l0,0l0-0.1l0,0l0-0.1l0-0.1l0-0.2l0,0l0-0.1
							l-0.1-0.1c-0.1-0.2-0.1-0.2-0.1-0.3l0,0c0.1-0.1,0-0.4,0-0.6l0-0.1l0,0l0,0.1l0,0.1l0,0.1l0,0l0,0l0,0.1l0,0.2l0,0l0,0.1
							l0,0.1L-14-14v0.1l0,0.1l0,0l0.1,0.2l0.1,0.1l0,0v0l-0.1,0.1l0,0c0.1,0,0.2,0.1,0.3,0.1c0.1,0.1,0.2,0.2,0.4,0.1l0.2-0.2
							l0-0.1l0,0l0,0l0.1-0.1l0.1,0l0.1,0.1l0,0.1l0,0.1l0,0v0.3l0,0.1l0,0.1l0,0.1h0v0.6l0,0.1l0,0l0,0l-0.1,0.1l-0.2,0l0,0
							l-0.2-0.1c-0.1,0-0.1-0.1-0.2-0.1l0,0.1l0,0.1l0,0.1l0,0.1c0.1,0.1,0.2,0.1,0.2,0.2l0,0l-0.1,0l-0.1,0l0,0l0.2,0.2
							c0.1,0.1,0.2,0.2,0.2,0.2l0,0.1l-0.1,0v0c0.4,0.3,0.3,0.5,0.9,0.9l0.2,0.2c0.1,0,0.1,0.1,0.2,0.1c0.1,0.1,0.3,0.2,0.5,0.3
							c0.1,0.1,0.3,0.1,0.5,0.2l0.3,0.1l0.1,0l0-0.1l0.1,0c0.1-0.1,0.3-0.1,0.4-0.1c0.1,0,0.2,0.1,0.3,0c0.1,0,0.2-0.1,0.3-0.1
							l0.2-0.1l0.2-0.1l0.1-0.1c0.1-0.1,0.2-0.1,0.3-0.2l0.2-0.1l0.1-0.1c0.1,0,0.2-0.1,0.3-0.2l0.1,0l-0.1,0.1l-0.2,0.1l-0.2,0.2
							c-0.1,0.1-0.2,0.1-0.3,0.2l-0.2,0.2l-0.2,0.1c-0.1,0-0.2,0.1-0.3,0.1c-0.1,0-0.1,0.1-0.2,0.1l-0.2,0l-0.2,0.1
							c-0.1,0-0.1,0.1-0.2,0.1c-0.1,0-0.2,0-0.3,0c-0.1,0-0.2-0.1-0.3,0c-0.1,0-0.2,0-0.2-0.1c-0.1,0-0.2-0.1-0.3-0.2l-0.2-0.1
							l-0.2,0l0,0.1c0.1,0.1,0.2,0.1,0.3,0.2l0,0l0.1,0.1l0,0.1l0,0l0.1,0.1l0.1,0.2l0.1,0.1l0,0.1l0.1,0.1l0,0.1
							c0.1,0.1,0.2,0.1,0.3,0.1l0,0l-0.1,0.1l0,0.1c-0.1,0.3-0.2,0.5-0.2,0.9l0,0l0,0.1l0,0l0,0.1l0,0V-7l0,0.1l0,0.1l0,0v0.1l0,0.1
							l0,0.1l0,0.1l0,0.1l0,0.1h0l0,0.1c0.1,0.2,0.1,0.2,0.1,0.3l0.1,0.1l0,0.1l0,0.1l0,0.2l0.1,0.2l0.1,0l0.2-0.1
							c0.1,0,0.2-0.1,0.3-0.2l0,0l0.1-0.1l0-0.1l0,0v-0.1l0,0l0.1,0v0.2l0,0.1l0,0.1l0,0.1c-0.1,0.1-0.1,0.2-0.2,0.2l-0.1,0
							l-0.2,0.1L-9.6-5l0.1,0l0,0C-9.4-5.2-9.3-5-9.2-5l0-0.1v0l0.1,0l0.3,0c0.1-0.1-0.1-0.1,0-0.2l0.2-0.1l0,0l0,0l0,0l0.1,0l0,0
							l-0.1,0.1l0,0.1l0,0l0,0l-0.1,0.2l0,0.1l-0.1,0L-9-4.9l0,0.1l0.2,0.2l0.1,0l0.1,0l0,0l0,0.1l0,0l0,0.1l0,0.1l0,0.1l0,0l0,0.1
							l0,0l0,0.1l-0.1,0l0,0l0-0.1l0,0l0-0.2l0-0.1l0,0l0,0.1v0.1l0,0l0,0.2l0,0.1c0.1,0.2,0.1,0.4,0.2,0.6l0.1,0.1l0.1,0.2
							c0.2,0.3,0.3,0.7,0.5,1L-7.8-2L-7.7-2l0-0.1l0,0l0,0.1l0.1,0.1l0,0l0,0l0.1,0l0.1-0.1l0.1,0l0.1,0.2l0,0l0,0L-7-1.4l0.2,0l0,0
							l0-0.1l0.1,0.1c0.1,0.1,0.2,0.2,0.2,0.3C-6.3-1.1-6.2-1-6-0.9l0,0l0.1,0c0.1,0.1,0.3,0.1,0.4,0.2c0.1,0.1,0.2,0.1,0.3,0.2
							c0.1,0,0.2,0,0.3,0.1c0.2,0,0.3,0.1,0.4,0.2c0.1,0,0.2,0.1,0.3,0.1c0.1,0,0.2,0.1,0.3,0.1c0.1,0,0.2,0.1,0.3,0.1l0.2,0
							c0.1,0,0.2,0,0.3,0c0.1,0,0.2,0,0.3,0c0.1,0,0.2,0,0.3,0c0.3,0,0.7,0,1-0.1c0.1,0,0.3,0,0.4-0.1l0.1,0l0.1,0l0.1-0.1l0,0
							l0.1-0.1l-0.1-0.1l0,0c0.1-0.1,0.2,0,0.3,0l0.2,0l0.2,0L0-0.6l0.1,0l0,0l0,0.1l0,0.1c0.1,0.2,0,0.5,0.1,0.7v0.2
							C-0.4,1.6-0.5,1,0,2.1l0,0.1c0,0.2,0.2,0.4,0.2,0.6l0,0.1l0,0.1l0,0.1h0l0,0c0.3,1,1,2.1,1.6,3L2,6.2l0.2,0l0-0.2l0,0l0-0.1
							l0-0.1l0,0l0-0.1l0-0.1l0-0.1l0-0.1l0-0.1V5.3l0,0l0-0.2h0l0-0.1c0-0.1,0-0.2,0.1-0.2V4.6l0,0V4.2l0,0l0-0.1l0,0l0-0.1l0-0.1
							V3.8l0,0l0-0.1l0-0.1l0-0.1l0,0l0,0l0-0.1l0-0.3l0,0l0-0.2l0-0.1h0l0,0c0-0.2,0-0.4,0-0.5l0-0.2l0,0V2l0-0.1V1.8l0,0l0-0.1
							l0-0.1V1.2l0-0.1l0-0.1V1l0,0V0.9l0-0.1l0-0.1l0-0.1l0-0.1l0-0.1C2.4,0.4,2.3,0.3,2.1,0.3C2,0.3,2,0.3,1.9,0.2
							c-0.1,0-0.2-0.1-0.3-0.1C1.5,0.1,1.4,0,1.3,0l0,0c0-0.5-0.2-0.8-0.2-1.1l0,0l0.1,0.1l0,0l0,0.1l0.1,0c0.1,0,0.2-0.1,0.3-0.2
							C1.8-1.3,2-1.4,2.2-1.5l0.1,0c0.1,0,0.2-0.1,0.3-0.1c0.1-0.1,0.3-0.1,0.4-0.2l0-0.1l-0.1,0L2.7-2l0.2-0.1l0.3-0.2
							c0.2-0.1,0.3-0.2,0.4-0.3l0-0.1l0,0c-0.1,0-0.2,0.1-0.3,0.1L3.1-2.6l0.1-0.1c0.2,0,0.3-0.1,0.4-0.2L3.8-3L4-3.1l0.1-0.1
							L4.2-3.3L4.2-3.3L4.2-3.3"/>
					</g>
					<g id="g6493" transform="translate(526.47749,63.916901)">
						<path id="path6495" class="st0" d="M0,0L0,0l0-0.1l0-0.1l0,0l-0.1,0l0,0l0,0l0,0.1l0,0v0l0,0L0,0z"/>
					</g>
				</g>
			</g>
		</g>
	</g>
</g>
</svg>
