<svg width="118" height="57" viewBox="0 0 118 57" fill="none" xmlns="http://www.w3.org/2000/svg">
<g clip-path="url(#clip0_2121_92)">
<mask id="mask0_2121_92" style="mask-type:luminance" maskUnits="userSpaceOnUse" x="-1" y="-1" width="120" height="59">
<path d="M-0.0180664 57.0457H118.446V-0.154511H-0.0180664V57.0457Z" fill="white"/>
</mask>
<g mask="url(#mask0_2121_92)">
<path d="M47.4074 49.3208C47.1328 48.8251 46.7788 48.5712 46.2177 48.5712C45.6276 48.5712 44.9798 49.004 44.9798 49.7028C44.9798 50.3242 45.5482 50.6506 46.0106 50.8392L46.5404 51.0641C47.5952 51.5041 48.3804 52.128 48.3804 53.4578C48.3804 54.9037 47.34 55.941 46.0106 55.941C44.8136 55.941 43.8792 54.9907 43.7202 53.7117L44.6547 53.5013C44.645 54.3766 45.2929 55.0101 46.09 55.0101C46.8872 55.0101 47.4556 54.292 47.4556 53.4578C47.4556 52.6019 46.8174 52.2343 46.1791 51.949L45.6686 51.7169C44.8232 51.3276 44.0526 50.8102 44.0526 49.7028C44.0526 48.4141 45.1171 47.6428 46.2369 47.6428C47.063 47.6428 47.7422 48.0756 48.1444 48.8469L47.4074 49.3208Z" fill="white"/>
<path d="M51.3909 55.7703H50.4661V48.7197H48.708V47.8105H53.1514V48.7197H51.3909V55.7703Z" fill="white"/>
<path d="M54.6758 47.8115V52.5071C54.6758 53.8079 55.0394 55.0096 56.4652 55.0096C57.8909 55.0096 58.2546 53.8079 58.2546 52.5071V47.8115H59.1794V52.8456C59.1794 54.5986 58.1655 55.9405 56.4652 55.9405C54.7649 55.9405 53.751 54.5986 53.751 52.8456V47.8115H54.6758Z" fill="white"/>
<path d="M61.3047 54.8626H61.6298C63.5156 54.8626 65.1484 54.1034 65.1484 51.7918C65.1484 49.4682 63.5156 48.7187 61.6298 48.7187H61.3047V54.8626ZM60.3799 47.812H61.914C64.1875 47.812 66.0732 49.0983 66.0732 51.7483C66.0732 54.4612 64.2236 55.7693 61.8827 55.7693H60.3799V47.812Z" fill="white"/>
<path d="M67.8951 55.7715H66.9702V47.8118H67.8951V55.7715Z" fill="white"/>
<path d="M75.6024 51.7907C75.6024 50.0377 74.3838 48.57 72.6425 48.57C70.9037 48.57 69.6851 50.0377 69.6851 51.7907C69.6851 53.6065 71.041 55.0113 72.6425 55.0113C74.2465 55.0113 75.6024 53.6065 75.6024 51.7907ZM76.5272 51.7907C76.5272 54.1554 74.7884 55.9374 72.6425 55.9374C70.4991 55.9374 68.7603 54.1554 68.7603 51.7907C68.7603 49.5106 70.5208 47.644 72.6425 47.644C74.7667 47.644 76.5272 49.5106 76.5272 51.7907Z" fill="white"/>
<path d="M87.0195 51.7592V52.076C87.0195 54.2618 85.5842 55.9398 83.5106 55.9398C81.4346 55.9398 79.7632 54.0176 79.7632 51.8124C79.7632 49.5227 81.4755 47.6416 83.6069 47.6416C84.7581 47.6416 85.8997 48.2001 86.627 49.1842L85.9791 49.8491C85.4469 49.0681 84.551 48.5507 83.6479 48.5507C81.9861 48.5507 80.688 49.9966 80.688 51.7786C80.688 53.4494 81.9668 55.0307 83.5684 55.0307C84.7196 55.0307 85.9575 53.9668 85.996 52.666H84.0789V51.7592H87.0195Z" fill="white"/>
<path d="M92.3109 51.0201V47.8115H93.2358V55.7688H92.3109V51.951H88.7827V55.7688H87.8579V47.8115H88.7827V51.0201H92.3109Z" fill="white"/>
<path d="M95.4706 55.7715H94.5459V47.8118H95.4706V55.7715Z" fill="white"/>
<path d="M97.7012 54.8834H98.4092C99.2642 54.8834 100.158 54.6102 100.158 53.4786C100.158 52.3616 99.098 52.127 98.272 52.127H97.7012V54.8834ZM97.7012 51.3388H97.9372C98.8138 51.3388 99.5291 51.1478 99.5291 50.0065C99.5291 48.8871 98.8211 48.6985 97.9565 48.6985H97.7012V51.3388ZM96.7764 47.8111H97.6819C99.0763 47.8111 100.394 48.2004 100.394 49.9969C100.394 50.5747 100.1 51.2518 99.5965 51.5056V51.525C100.473 51.6967 101.082 52.613 101.082 53.5415C101.082 55.1373 99.8157 55.7708 98.508 55.7708H96.7764V47.8111Z" fill="white"/>
<path d="M103.042 54.8626H105.293V55.7693H102.117V47.812H103.042V54.8626Z" fill="white"/>
<path d="M106.795 55.7715H105.87V47.8118H106.795V55.7715Z" fill="white"/>
<path d="M33.5176 42.5076C35.7959 41.6106 38.3463 39.1637 39.471 35.8608H34.1052V34.6543H41.0389C40.904 35.2733 40.5235 37.1012 39.0568 39.2507C39.6661 39.773 41.1737 41.0883 42.5465 42.5391L41.5735 43.5933C41.152 43.0613 40.4006 42.1183 38.356 40.2034C37.6359 41.0883 36.2005 42.6865 34.2304 43.5473L33.5176 42.5076Z" fill="white"/>
<path d="M46.1253 37.9545C46.5684 38.1552 47.4354 38.5542 48.5192 39.5262C49.4271 38.2761 49.6631 37.0889 49.7571 36.6368H46.147C45.1234 38.1552 44.2468 38.808 43.4327 39.3158L42.6597 38.3849C44.4635 37.3767 45.4028 36.0396 46.1132 34.0545L47.3632 34.3083C47.1657 34.775 47.0429 35.0627 46.8165 35.4859H51.2117C50.942 37.2219 50.0557 42.3067 43.9698 43.8276L43.3099 42.7299C44.0083 42.6066 45.764 42.2971 47.6931 40.4691C46.6623 39.4947 45.7231 39.0184 45.3185 38.808L46.1253 37.9545Z" fill="white"/>
<path d="M51.9988 42.1418C55.8883 41.7984 57.6536 40.5339 58.9926 36.1164L60.1101 36.6483C58.706 40.8458 56.9624 42.9058 52.2878 43.4716L51.9988 42.1418ZM59.7464 35.5071C59.5104 34.5085 59.3129 34.0563 59.2094 33.8121L60.0475 33.6114C60.3365 34.2522 60.5316 34.9848 60.6038 35.2508L59.7464 35.5071ZM58.2412 35.7392C58.0967 34.9848 57.9643 34.5423 57.7547 33.9548L58.6025 33.7565C58.8602 34.4214 58.9541 34.7092 59.1275 35.5167L58.2412 35.7392ZM54.3108 39.4071C53.1138 38.7059 51.9169 38.2876 51.4111 38.1208L51.8832 36.9699C52.2685 37.0884 53.805 37.5792 54.7852 38.1547L54.3108 39.4071ZM55.1055 36.8369C54.082 36.2808 53.1138 35.906 52.2252 35.628L52.7213 34.4649C54.2771 34.963 55.0526 35.3402 55.6306 35.628L55.1055 36.8369Z" fill="white"/>
<path d="M70.9128 42.1418C74.8023 41.7984 76.5676 40.5339 77.9067 36.1164L79.0242 36.6483C77.6201 40.8458 75.8764 42.9058 71.2018 43.4716L70.9128 42.1418ZM78.6605 35.5071C78.4245 34.5085 78.227 34.0563 78.1234 33.8121L78.9615 33.6114C79.2505 34.2522 79.4456 34.9848 79.5179 35.2508L78.6605 35.5071ZM77.1553 35.7392C77.0108 34.9848 76.8783 34.5423 76.6688 33.9548L77.5165 33.7565C77.7742 34.4214 77.8681 34.7092 78.0415 35.5167L77.1553 35.7392ZM73.2248 39.4071C72.0279 38.7059 70.8309 38.2876 70.3252 38.1208L70.7972 36.9699C71.1826 37.0884 72.7191 37.5792 73.6993 38.1547L73.2248 39.4071ZM74.0196 36.8369C72.9985 36.2808 72.0279 35.906 71.1392 35.628L71.6353 34.4649C73.1935 34.963 73.9666 35.3402 74.5446 35.628L74.0196 36.8369Z" fill="white"/>
<path d="M88.3924 35.2073C88.3202 34.7624 88.1227 34.0201 87.9493 33.5994L88.7946 33.435C88.9897 33.979 89.0836 34.3102 89.2281 34.9969L88.3924 35.2073ZM87.3087 33.522C87.4965 33.9887 87.5977 34.3659 87.7422 35.0646L87.4315 35.1082V35.1299H88.0504C87.877 39.9488 85.618 42.6834 81.7478 43.5732L81.0975 42.386C82.7593 42.0427 86.1743 41.3101 86.7307 36.3268H80.1992V35.1299H86.8125C86.721 34.5762 86.6271 34.245 86.4224 33.6768L87.3087 33.522Z" fill="white"/>
<path d="M96.6987 38.5307C96.6987 40.2716 96.4001 41.6329 95.2007 42.6073C94.2639 43.3738 93.303 43.5696 91.2197 43.8138L90.8392 42.5952C93.4812 42.4187 95.4825 41.9762 95.4825 39.1183V34.3211H96.6987V38.5307ZM91.4895 40.5376H90.2949V34.5218H91.4895V40.5376Z" fill="white"/>
<path d="M103.343 33.7894C103.261 34.1545 103.167 34.5535 102.919 35.1966H107.367V36.2919H103.94V37.866H107.109V38.9613H103.94V40.5474H107.109V41.6331H103.94V44.1162H102.827V36.2919H102.435C101.743 37.6556 101.187 38.2867 100.867 38.6639L100.164 37.7209C101.291 36.5482 101.951 34.788 102.199 33.6564L103.343 33.7894ZM98.8967 38.2988H98.8751C98.5259 38.7872 98.2441 39.0628 97.9671 39.3288L97.4927 38.2335C98.6366 37.0802 99.3278 35.818 99.783 33.6661L100.876 33.8668C100.732 34.3987 100.496 35.3199 99.9877 36.4152V44.1162H98.8967V38.2988Z" fill="white"/>
<path d="M110.306 36.924H115.342V35.0404H110.306V36.924ZM109.287 34.0007H116.344V37.9685H109.287V34.0007ZM114.111 42.5093H116.308V39.8835H114.111V42.5093ZM108.302 38.8631H112.315V43.9939H111.325V43.5393H109.287V44.0713H108.302V38.8631ZM109.287 42.5093H111.332V39.8835H109.287V42.5093ZM113.114 38.8631H117.302V44.0713H116.313V43.5393H114.111V44.0713H113.114V38.8631Z" fill="white"/>
<path d="M61.0837 41.8277C64.2025 39.5525 65.255 37.4949 65.4187 37.1443L61.0283 37.1394V35.9208H66.1292V34.0663H67.278V35.9208H69.6165V37.1684H67.2876L67.29 43.6581H66.1292L66.1316 38.1404C66.1316 38.1404 65.1996 40.4012 61.7605 42.8795L61.0837 41.8277Z" fill="white"/>
<path d="M33.1802 45.5781H118V45.7184H33.1802" fill="white"/>
<path d="M34.1123 16.8421V16.9558L33.9292 17.0186L33.4283 17.0065L32.9274 17.0283L32.9009 16.9775L33.1321 16.8324C33.4668 16.8953 33.7583 16.7285 34.0641 16.8131L34.1123 16.8421Z" fill="white"/>
<path d="M22.0643 28.0622L21.9776 28.1661L21.8139 28.3837L21.6983 28.5167L21.3515 28.7972L20.9974 29.0317C20.7662 29.2397 20.4483 29.3968 20.0726 29.4573L19.6199 29.5081C19.3598 29.479 19.0732 29.479 18.8612 29.363L18.63 29.2905C18.3242 29.1309 18.2062 29.0148 18.0906 28.6811L18.0809 28.5989H18.0617L18.0424 28.3402L18.0135 28.2677L17.9653 27.7019V27.6173H17.975L17.9846 27.2038L18.0207 27.1216L18.0617 27.0394H18.0809L18.0906 26.9064H18.0978L18.1291 26.8V26.4204L18.1676 26.3479L18.1845 26.2536L18.2062 26.0892H18.2254L18.2351 25.9949H18.2447L18.2736 25.903V25.8401H18.2929L18.3121 25.7289H18.329L18.5048 25.3976L18.6108 25.2622C18.842 25.1196 19.0419 24.9092 19.4079 24.8899L19.8318 24.7448C20.063 24.7569 20.2749 24.8173 20.5061 24.8609L20.9878 25.0954L21.2744 25.4073H21.2937L21.3153 25.4702H21.3322L21.4189 25.6346C21.797 26.3745 21.9656 26.8435 22.0354 27.7019L22.0451 27.7938H22.0643V28.0622ZM22.7941 28.0815L22.5364 27.9388L22.4593 27.876L22.4015 27.8228L22.363 27.6584H22.3413L22.3148 27.2038H22.3052L22.2859 27.0829L22.2546 26.8943L22.2185 26.5945H22.1992L22.1703 26.4494H22.1607L22.1221 26.3261L22.0836 26.181L22.0065 25.9538H21.9873L21.9415 25.8304C21.5779 24.9382 21.3756 24.74 20.4483 24.5103L20.1593 24.416C19.8511 24.4039 19.5139 24.416 19.2369 24.5199C19.0154 24.4958 18.8974 24.6215 18.7456 24.7037L18.3699 24.9721L18.2616 25.1389L18.2351 25.2211L18.1195 25.3759L18.0617 25.4484L18.0328 25.5621H18.0207L17.975 25.6539V25.6854L17.9461 25.7893H17.9364L17.9075 25.9441H17.8883V25.9949L17.869 26.181H17.8497L17.8305 26.4204H17.8112L17.7823 26.5534H17.7727L17.7438 26.7275H17.7341L17.7245 26.8532H17.7052V26.9572H17.686L17.7052 27.1313L17.5126 27.4528H17.5029L17.5126 27.5568L17.5222 27.5858L17.7052 27.8228H17.686V27.8977L17.6763 28.154L17.7052 28.3112L17.7341 28.4756L17.7438 28.5264H17.763L17.7727 28.6207L17.8112 28.744L17.8497 28.8262L18.0039 29.0559L18.329 29.363L18.6373 29.612C18.9552 29.6942 19.2538 29.8901 19.6391 29.7982C19.8607 29.7668 20.1401 29.7764 20.2846 29.6314L20.5543 29.5806L20.7662 29.5202L21.2166 29.2808L21.5345 29.0414C21.7561 28.9205 21.862 28.715 22.0451 28.5675L22.2185 28.3499L22.2859 28.2894L22.6809 28.2387L22.7941 28.0815Z" fill="white"/>
<path d="M14.0878 25.252L14.1167 25.2617H14.1071V25.2811H14.0975L14.03 25.5398H14.0108L13.9819 25.6969H13.9722L13.9433 25.8904H13.9337L13.9144 26.0064L13.8855 26.1829H13.8663V26.2748H13.847L13.7796 26.4102L13.664 26.3377L13.6567 26.2555H13.6736L13.6929 25.9653H13.7121L13.741 25.8323H13.7507L13.7603 25.7163H13.7796L13.7988 25.564H13.8181L13.8663 25.4068L13.8855 25.3439L13.9241 25.2811V25.2424L13.9433 25.223L14.03 25.1602L14.0878 25.252Z" fill="white"/>
<path d="M14.3187 25.9131L14.3284 25.9566L14.3476 26.0582H14.3284L14.2995 26.225L14.1357 26.2733L14.0972 26.0582L14.1357 25.9663L14.3187 25.9131Z" fill="white"/>
<path d="M14.6747 26.1305L14.7133 26.1933V26.3578L14.6458 26.4182L14.4917 26.2756L14.5013 26.1837L14.5302 26.1595L14.6747 26.1305Z" fill="white"/>
<path d="M15.2135 26.43L15.2328 26.5437L15.175 26.6162L15.0136 26.5533L14.9727 26.4494L14.9823 26.3382H15.1268L15.2135 26.43Z" fill="white"/>
<path d="M19.0911 27.3285L19.0333 27.256L19.0141 27.1013L19.0815 27.0698L19.1104 27.1013L19.12 27.152L19.0911 27.3285ZM19.3224 27.0601L19.2814 26.8425H19.2646L19.2453 26.6056L19.1875 26.4919L19.0333 26.3348C18.7251 26.2332 18.6287 26.5016 18.4963 26.6467L18.4361 26.7289L18.4072 26.8329H18.3975V26.8957L18.3686 26.9876H18.3518L18.3325 27.4107L18.3686 27.7928L18.3975 27.846L18.6095 28.1869L19.0141 28.1651L19.1297 28.0926L19.2646 27.846H19.2814L19.3031 27.7323C19.2814 27.4833 19.3513 27.2995 19.3224 27.0601Z" fill="white"/>
<path d="M10.989 28.9403L11.0276 29.0032L11.1022 29.1168L11.1239 29.2281L11.0083 29.3635L10.4592 29.5085L10.1533 29.3538L10.1894 29.2716H10.1991L10.2304 29.1459H10.2497L10.2665 29.0322L10.3725 28.8968L10.8252 28.8049L10.989 28.9403Z" fill="white"/>
<path d="M20.9866 32.5978C20.5916 32.6075 20.2183 32.5978 19.833 32.5978L19.4284 32.5471L19.3513 32.4745L19.4164 32.4431L20.2834 32.535C20.5242 32.4624 20.7554 32.5688 20.9866 32.5785V32.5978ZM29.2328 33.5916C28.8788 33.4659 28.4645 33.4659 28.125 33.3329C27.7998 33.299 27.4988 33.1975 27.1448 33.2265L26.8004 33.1564L26.4728 33.0935C26.2224 33.0427 25.9526 33.0307 25.6829 33.0113C25.4517 32.8856 25.1242 32.9678 24.9122 32.8469C24.5269 32.8251 24.2307 32.6414 23.8453 32.6897C23.5732 32.6801 23.354 32.5785 23.065 32.6075C22.7881 32.5253 22.4485 32.5688 22.1715 32.5156L21.6489 32.4745C21.2852 32.4334 20.8999 32.3923 20.5242 32.4334C20.1967 32.3706 19.8523 32.3198 19.4838 32.3295L19.0142 32.2569L18.9275 32.4431H18.9082L18.9178 32.5471L19.149 32.8155C19.438 32.8953 19.7752 33.0113 20.1003 32.9194C20.3604 32.9291 20.6109 32.9678 20.8614 32.9388C21.1022 32.9799 21.3527 32.9291 21.5839 32.992L22.0535 33.0307C22.3618 33.0524 22.6604 33.021 22.959 33.0718C23.1902 33.0113 23.3829 33.125 23.6141 33.1346L24.4402 33.1975C24.722 33.2894 25.0567 33.2386 25.3361 33.3111C25.5962 33.3208 25.8563 33.3208 26.0971 33.3837L26.6366 33.4344L27.087 33.5287L27.4916 33.5916C27.7806 33.6932 28.125 33.6835 28.4164 33.7875L28.9149 33.889L29.3291 33.8358L29.3484 33.8068L29.2328 33.5916Z" fill="white"/>
<path d="M17.5424 33.8273C17.8314 33.9192 18.1951 33.8467 18.4865 33.9821L18.8983 34.0764L19.1584 34.1683C19.3993 34.1683 19.6401 34.2505 19.8882 34.2601L20.0929 34.4898V34.6132C19.7268 34.5914 19.4209 34.4463 19.0621 34.4076L18.5997 34.3013C18.0506 34.2819 17.5906 33.9821 17.0222 34.1054L16.6851 33.8902L16.6489 33.7645L17.0126 33.7838L17.5424 33.8273Z" fill="white"/>
<path d="M28.8098 36.6065C28.5594 36.7105 28.292 36.5968 28.0512 36.5654C27.702 36.4203 27.2902 36.3285 26.9337 36.1931V36.1834L26.4448 36.1012C26.1919 36.0069 25.915 35.9682 25.6332 35.9247L25.1925 35.7893C24.7975 35.6128 24.3062 35.4701 23.8944 35.325C23.4874 35.2622 23.143 35.1098 22.7769 34.9938L22.3916 34.8197L22.4012 34.7883C22.6228 34.7665 22.7962 34.8608 22.9888 34.8922C23.2682 35.0373 23.6415 35.076 23.9498 35.1703L24.2677 35.2114C24.547 35.296 24.8746 35.325 25.125 35.4604C25.3659 35.5209 25.5465 35.6756 25.8187 35.6974C26.1462 35.8207 26.5195 35.8932 26.847 36.0069L27.4539 36.1302C27.6755 36.1931 27.9236 36.2124 28.1283 36.3067L28.4462 36.401L28.8195 36.5533H28.8291L28.8098 36.6065ZM29.3493 36.5872L29.2048 36.4203L28.8773 36.1834C28.6653 36.1931 28.5497 36.048 28.3378 36.0697C28.1644 35.9875 28.0199 35.8715 27.779 35.8836C27.4033 35.7482 26.953 35.6853 26.5387 35.6031L26.0956 35.4072L25.6067 35.2525L25.2503 35.1098L24.7879 34.9744C24.2484 34.7979 23.6728 34.7351 23.1141 34.5803C22.8732 34.5102 22.5746 34.5295 22.3627 34.4183C21.4306 34.2732 20.5733 34.0049 19.6701 33.8163C19.4751 33.693 19.1668 33.7123 18.938 33.6204L18.7164 33.5793C18.4949 33.5285 18.2348 33.5164 18.0228 33.4439L17.7916 33.4052L17.2907 33.2481C17.0523 33.103 16.7247 33.2287 16.52 33.3206L16.4839 33.3714L16.5128 33.5285L16.7705 33.4246L17.1462 33.5285C17.4834 33.5696 17.782 33.6639 18.0903 33.7558L18.2251 33.8066L18.5527 33.9299C18.8393 33.9613 19.1307 33.9299 19.3691 34.0435C19.6701 34.0871 19.9182 34.2297 20.2361 34.1572L20.3421 34.2297C20.554 34.2394 20.7178 34.3555 20.8815 34.428L20.6985 34.5199L20.554 34.6964L20.5829 34.7157C20.8406 34.8076 21.1127 34.8487 21.3801 34.943C21.7076 34.9938 21.987 35.1606 22.3338 35.18C22.854 35.3565 23.3814 35.4798 23.8944 35.6563C24.1424 35.7385 24.4603 35.7796 24.6915 35.8932L24.8938 35.9682C25.1515 36.0069 25.3273 36.1616 25.5971 36.1737C25.8837 36.2559 26.1727 36.3285 26.4545 36.4203L27.0493 36.5775C27.425 36.6694 27.8296 36.7419 28.1837 36.8652C28.4341 36.8846 28.6557 36.8556 28.8773 36.9281L29.3493 36.7419V36.5872Z" fill="white"/>
<path d="M10.5177 35.1909L10.5466 35.2948L10.4792 35.3553L9.96862 35.3142L9.95898 35.1909L10.0168 35.1087L10.4021 35.0651L10.5177 35.1909Z" fill="white"/>
<path d="M24.5566 38.9932L24.4988 38.9739L23.9401 38.7248L23.4391 38.4661L22.9502 38.2074L22.4011 38.014C22.1507 37.8979 21.852 37.8351 21.6112 37.7021C21.3607 37.6295 21.1295 37.5473 20.9393 37.3902L20.5347 37.2572C20.3324 37.175 20.1782 37.0396 19.9567 36.9888L19.658 36.8848L19.1113 36.6164L18.8705 36.4496L18.9379 36.3674C19.2655 36.4012 19.487 36.6068 19.8218 36.6479L19.947 36.689C20.236 36.8147 20.5636 36.8848 20.8213 37.0492C21.0452 37.1218 21.2837 37.2161 21.4763 37.308L21.9387 37.5473L22.2181 37.7021C22.4493 37.794 22.7094 37.9076 22.8997 38.043L23.326 38.2292L23.6029 38.3404L24.1809 38.662L24.5566 38.94V38.9932ZM25.7969 39.53L25.5103 39.3051L25.2093 39.0223L24.6048 38.5991C24.3447 38.3743 23.9618 38.2703 23.6896 38.043L23.3139 37.8472L23.1501 37.7746L22.9599 37.6586C22.7383 37.6489 22.6516 37.4845 22.4686 37.4434L22.0736 37.2693L21.5534 37.0589L21.103 36.8848L20.7273 36.7325C20.513 36.585 20.236 36.5125 19.9856 36.4109C19.7375 36.3795 19.5232 36.2658 19.292 36.2151L19.2655 36.1812L18.6875 36.1619L18.5791 36.2852L18.5526 36.4012H18.543L18.6008 36.6068L18.8898 36.8655C19.2558 37.0009 19.6002 37.1943 19.9687 37.3176L20.4865 37.5352C20.6792 37.6924 20.9947 37.7118 21.2162 37.8254C21.4113 38.014 21.7461 37.9995 21.9701 38.1663C22.3241 38.2074 22.5143 38.4468 22.8732 38.4879L22.8997 38.5169L23.3717 38.7442L23.7185 38.8796C24.0171 38.9642 24.2869 39.0851 24.4988 39.2713C24.7204 39.2906 24.8938 39.4164 25.1057 39.4671L25.3056 39.5832L25.7584 39.6316L25.809 39.5614L25.7969 39.53Z" fill="white"/>
<path d="M15.8008 41.2866H15.8393L15.8971 41.3688C16.0802 41.4631 16.2319 41.5864 16.4535 41.6372L16.6774 41.8331L16.6678 41.9491L16.6485 41.9878L16.8581 42.1135C17.1085 42.1547 17.2723 42.2804 17.4939 42.3287L17.648 42.4641L17.7251 42.631L17.7732 42.6697L17.8118 42.764L17.831 42.9187H17.8503C18.2188 43.3298 18.4235 43.6562 18.7823 44.0551L18.869 44.2099H18.8907C19.1436 44.558 19.618 44.9352 19.7457 45.3366L19.8516 45.501C20.0058 45.7186 20.2322 46.0644 20.2948 46.34L20.3237 46.7196L20.3526 46.8647H20.3622L20.4104 46.9493L20.4489 47.2371H20.4658L20.5356 47.4015L20.5742 47.4861C20.6295 47.6989 20.88 47.7787 20.9595 48.1365L20.9884 48.1994L21.0245 48.3517L21.0462 48.4364L21.0751 48.8595L21.169 49.1085L21.2292 49.2101L21.3135 49.3261L21.5279 49.5099L21.8458 49.8315L21.8915 49.9258L21.9301 50.3489H21.9108L21.8819 50.4916H21.8723L21.8626 50.6366H21.8458L21.853 50.656H21.8458V50.6777H21.8626L21.8723 51.2556L21.9108 51.7731L21.959 52.0511L21.9686 52.1768H21.9879V52.23L21.9999 52.4138L22.0168 52.5178H22.0264L22.0168 52.9941L22.1227 53.1367L22.1131 53.3133H22.0938L22.0746 53.4583H22.0553L22.0457 53.5405H22.036L22.0071 53.6735L21.9012 53.7799L21.7952 53.7267V53.5816H21.8145L21.8458 53.3858L21.8819 53.1899V53.1271H21.9012L21.8915 53.0038L21.6507 52.7862L21.6314 52.6628H21.6507L21.682 52.5468V52.392H21.6916V52.2687H21.7085L21.6916 52.0825L21.6507 51.9907L21.6218 51.8988L21.5929 51.8553L21.564 51.7223H21.5447L21.5375 51.3814L21.5279 51.1734H21.5447V50.8325H21.5279V50.4626H21.5447V50.286H21.564L21.5062 49.9548H21.4869L21.4508 49.8823L21.2557 49.6864L21.0558 49.4809L20.8607 49.2318L20.8439 49.14H20.8246L20.815 49.0457L20.7933 48.799L20.7187 48.6008L20.697 48.446H20.6801L20.6416 48.2187L20.6127 48.1559L20.5742 48.0737L20.42 47.7859H20.4104L20.3622 47.7134L20.2755 47.5466L20.2466 47.4958L20.1792 47.4015H20.1599L20.1214 47.2999L20.0829 47.167L20.0732 47.0702H20.054L20.0251 46.8019L20.0058 46.681L19.9673 46.2772H19.948L19.9095 46.1732L19.8131 45.9774L19.7553 45.8516H19.7457L19.6975 45.7791L19.6132 45.6268H19.6036L19.553 45.5325C19.2616 45.0924 19.1869 44.8845 18.686 44.4879L18.4644 44.1905H18.4572L18.3777 44.0551C18.0502 43.5111 17.689 43.5159 17.5035 42.9381L17.3108 42.6407H17.294L16.9664 42.4545L16.4848 42.2369L16.4727 42.145H16.4535L16.3957 42.0096C16.1548 42.0096 16.1091 41.8041 15.9549 41.7194L15.5311 41.4825L15.4468 41.2141L15.5696 41.1633L15.8008 41.2866Z" fill="white"/>
<path d="M10.3733 50.5957L10.354 50.9173H10.3347L10.3251 51.0092H10.3155L10.2866 51.3598L10.3058 51.4009H10.2962L10.2866 51.7732H10.2673L10.2288 51.9183V51.9497L10.1132 51.9908L9.98792 51.9401L9.90122 51.7732L9.86509 51.7225L9.81452 51.6185L9.76635 51.4831L9.67002 51.3501L9.66038 51.3187L9.42918 50.9995L9.38342 50.9463L9.28468 50.7505L9.27505 50.6586H9.25578L9.17149 50.5135L9.02458 50.4724L8.94751 50.4095L8.84395 50.2645L8.50678 49.9767C8.27558 49.8824 8.15035 49.6648 7.82281 49.6987L7.42784 49.822V49.851L6.91968 49.8317L6.91005 49.8002L6.91968 49.6455L7.31465 49.2852L7.51454 49.128L7.81318 48.9008L8.08291 48.6324L8.39118 48.3833L8.63202 48.2092C8.84395 48.127 9.00772 47.982 9.23892 47.9094L9.42918 47.9409L9.53756 48.0424L9.64111 48.1585L9.68928 48.2624L9.79525 48.3833L9.87232 48.4776L9.91085 48.5695L9.95902 48.7581H9.97828L10.0192 48.8717L10.065 49.0023L10.1035 49.1184H10.1228L10.1517 49.261L10.1806 49.3239L10.1999 49.3964L10.2673 49.8099H10.2866L10.3155 50.3177H10.3251L10.3733 50.5667L10.354 50.5957H10.3733ZM10.5756 50.3467L10.5563 50.1L10.5081 49.8317H10.5178L10.4792 49.5826H10.46L10.4407 49.3868H10.4214L10.4022 49.2949L10.3733 49.0265L10.3347 48.9201H10.3155L10.2577 48.6952L10.2288 48.5598H10.2095L10.171 48.3833L10.1228 48.2915L10.0843 48.1996L10.0457 48.1149L10.0192 48.0859L9.67002 47.7644L9.33285 47.5467C8.96678 47.4428 8.72594 47.7112 8.51642 47.878L8.31411 48.0424L7.90951 48.2189L7.80354 48.3229L7.69998 48.4269L7.54585 48.5598L7.35077 48.7146C7.14125 48.8186 7.0425 49.0265 6.85225 49.1692L6.76554 49.261C6.57769 49.4641 6.41393 49.6842 6.22607 49.8945V49.9864H6.24534L6.25497 50.0493L6.38984 50.2258C6.78481 50.3273 7.17015 50.1919 7.53381 50.1315L7.94804 50.0493C8.17925 49.9864 8.25631 50.1726 8.40804 50.2548L8.63202 50.4821L8.88971 50.6586L8.90175 50.6997H8.92102C9.0896 50.9511 9.32321 51.176 9.47012 51.4444L9.56405 51.6185H9.58331L9.60258 51.6813L9.64111 51.7515H9.66038L9.71096 51.8965H9.72782L9.82415 52.1142L9.87232 52.1746L10.2673 52.3825L10.46 52.281L10.4792 52.2592L10.4864 52.1649L10.5274 51.7104H10.5467V51.5266H10.5274V51.205H10.5467V51.0817H10.5563L10.5635 50.956H10.5852L10.6141 50.7505H10.6237L10.6334 50.6586H10.643V50.5232L10.5756 50.3467Z" fill="white"/>
<path d="M17.1669 56.6397L17.0994 56.7123L16.849 56.6687C16.5238 56.4173 16.2782 56.0764 16.0109 55.762L15.982 55.7306C15.8591 55.5759 15.5798 55.4936 15.3486 55.5251L14.8573 55.4211C14.5972 55.3582 14.3949 55.513 14.154 55.4501L14.0673 55.3292L14.0577 55.3171H14.0673L14.077 55.1431L14.1444 55.0705L14.2624 54.9762L14.3852 54.8819L14.7609 54.5531V54.5313L14.8669 54.3983L15.1559 54.0864L15.3389 53.9341C15.5027 53.7455 15.6954 53.6029 15.982 53.54L16.3095 53.5086L16.6178 53.7794L16.6756 53.8519L16.7141 53.9123L16.8104 54.159H16.8297L16.8586 54.2533L16.8875 54.3065L16.9357 54.408L16.9646 54.5628L16.9838 54.7054C17.0489 54.9351 16.9718 55.2954 17.0489 55.513L17.0802 55.6798H17.0994L17.1259 56.1537H17.138L17.1572 56.4004L17.1861 56.5479L17.1669 56.6397ZM17.4848 56.5575L17.4438 56.1537L17.427 55.9579H17.4366L17.4077 55.8225L17.3981 55.7814L17.3114 55.3776H17.3017V55.3292H17.3114V55.0077L17.2897 54.5845H17.2728L17.2536 54.3983L17.2247 54.3258L17.1861 54.2218H17.1669L17.1476 54.0961L17.1187 54.0477L17.0802 53.9631H17.0705L17.0416 53.9027L16.9549 53.8084L16.7623 53.5497L16.3577 53.1894L16.0687 53.1265C15.7821 53.0637 15.6568 53.2813 15.4256 53.3441V53.3538L15.1174 53.5811L14.6357 54.0574L14.5875 54.1396V54.1807L14.549 54.2533L14.5105 54.3258L14.2215 54.6764L13.9541 54.894L13.8265 55.0802L13.7807 55.1721L13.6362 55.3486V55.4936L13.6916 55.5759C13.8458 55.7524 14.2022 55.8442 14.4719 55.7524L14.8091 55.762L15.3558 55.7814L15.3654 55.6702H15.3871L15.3967 55.762H15.3775L15.4064 55.8442H15.4642L15.8182 55.9676V55.9869L15.982 56.1344L16.0229 56.2166L16.1867 56.4439L16.2228 56.4947L16.3769 56.7026H16.3962L16.56 56.867L17.0224 57L17.4173 56.9275L17.4848 56.7945H17.504V56.5575H17.4848Z" fill="white"/>
<path d="M48.0365 32.8249L48.0461 32.9071L48.1135 33.2795L48.1424 33.4052L48.1617 33.589H48.181L48.2291 33.7848H48.2484L48.2677 33.9928H48.2869L48.3062 34.1161H48.3255L48.3351 34.1983L48.4218 34.5199H48.4314L48.4411 34.6432L48.4796 34.8801H48.4989L48.5181 35.0446H48.7927L48.7854 34.9116H48.7662L48.759 34.8173L48.7301 34.6432H48.7084L48.6819 34.5199H48.6723L48.6337 34.3941L48.6048 34.2612L48.5856 34.0339H48.5663L48.535 33.9106H48.5278L48.4892 33.7752L48.4796 33.6422L48.4507 33.589L48.3808 33.2287L48.3736 33.103H48.3544L48.3351 32.97L48.3062 32.8975L48.2677 32.7959H48.2484L48.2291 32.6605H48.2099L48.181 32.513L48.1039 32.3293L48.0654 32.2059H48.0461L47.9979 32.0512L47.9594 31.9666L47.9209 31.8844L47.8727 31.7707H47.8631L47.8149 31.5434H47.7956L47.7474 31.3379L47.7089 31.2219L47.6704 31.1493H47.6511L47.6054 31.0067L47.5644 30.9148L47.497 30.7383L47.4584 30.6343H47.4416L47.391 30.4167L47.3525 30.3248H47.3332L47.2971 30.1797H47.2778L47.2272 29.9839L47.1887 29.9114L47.1502 29.8291H47.1333L47.0827 29.6841L47.0466 29.5511L47.0057 29.4471L46.9286 29.2489L46.8925 29.1376L46.8347 28.9901H46.8154L46.8058 28.8886L46.7745 28.7749L46.7287 28.5573H46.7167L46.6878 28.405L46.6613 28.3518L46.63 28.2599H46.6107L46.5842 28.1028H46.5746L46.5529 28.0206L46.5264 27.8755L46.4879 27.7618H46.4662L46.4204 27.6071L46.3795 27.5152L46.2254 27.2662L46.1122 27.1332L45.9484 26.8938L45.9677 26.7101L45.9942 26.5843H46.0062L45.9942 26.4513L45.9002 26.2216L45.8617 26.1201H45.8424L45.8232 26.0572H45.8039L45.7557 25.9653H45.7365L45.7172 25.9025H45.6979L45.6305 25.7792C45.2139 25.2158 44.9875 24.6887 44.6599 24.1157L44.5636 23.9174H44.5419L44.4552 23.7747C44.2481 23.5184 44.0603 23.2186 43.7833 23.0397L43.5328 22.8342L43.186 22.9575L43.2438 23.1243L43.6195 23.3419L44.0241 23.6804L44.2072 23.869L44.4745 24.1374L44.3878 24.2486L44.2457 24.3937L44.1879 24.4542L44.159 24.488L44.1879 24.5896L44.2168 24.6234L44.6094 24.7661V24.7854H44.6286C44.8911 25.1022 45.1248 25.4455 45.3608 25.7888L45.3993 25.8807H45.4186L45.5631 26.1201V26.2337H45.5438L45.527 26.3691H45.5053L45.3993 26.5239L45.38 26.5432L45.3897 26.594L45.5149 26.8213L45.7268 27.0413L45.7365 27.0703L46.0158 27.3919L46.064 27.4935H46.0833L46.1796 27.7328L46.2254 27.7933L46.2759 27.948H46.2952L46.3241 28.0931L46.3434 28.2478L46.3795 28.4244L46.4301 28.5162L46.4879 28.6299H46.4975L46.5264 28.7556H46.5433L46.5746 28.9611H46.5649L46.5842 29.1159H46.6035L46.63 29.2392L46.6613 29.302L46.6878 29.4471L46.7287 29.5511L46.7841 29.6333L46.8347 29.7566H46.8515L46.8925 29.9307C46.9816 30.1797 47.1165 30.4191 47.22 30.6851L47.2465 30.8519H47.2658L47.2971 30.997L47.3525 31.2219H47.3742L47.391 31.3669H47.4103L47.4584 31.5434H47.4777L47.5187 31.6571L47.5548 31.7393L47.6054 31.8553L47.6415 31.9569H47.6607L47.7595 32.1624L47.8149 32.3196L47.8534 32.4115H47.8727L47.9305 32.5759L47.969 32.6702L48.0172 32.8249H48.0365Z" fill="white"/>
<path d="M18.784 13.3395V13.4435H18.7648L18.7551 13.5354H18.7455L18.7166 13.6369L18.6588 13.7095L18.495 13.8981L18.129 13.7723L18.023 13.6369L17.9676 13.5789L17.9267 13.4749L17.8978 13.4121L17.8592 13.267H17.8809V13.163H17.8905L17.8978 12.9358L17.9676 12.8342L18.0615 12.7012L18.4661 12.6045L18.6684 12.8028L18.7262 12.9696H18.7455L18.7937 13.2259L18.8033 13.3395H18.784ZM19.0249 13.1002L18.996 12.8535L18.9574 12.7834L18.8804 12.6674L18.8707 12.648L18.784 12.5658L18.6299 12.4183C18.4661 12.3168 18.2349 12.4304 18.023 12.3796L17.8496 12.5126L17.7533 12.6384L17.6593 12.8535H17.6497L17.6184 12.989H17.5991V13.1945H17.6184L17.6497 13.4749H17.6593L17.7075 13.6998L17.7436 13.8038H17.7629L17.8303 13.9585L18.023 13.9924L18.6203 14.0528L18.7262 13.9682L18.8707 13.7627L18.9093 13.6998V13.6805L19.0152 13.4749H19.0345L19.0249 13.1002Z" fill="white"/>
<path d="M34.2949 15.2714V15.2811L34.1408 15.1264L34.0733 15.0659L33.9096 14.8483L33.8999 14.8169L33.6013 14.5364L33.3243 14.3019L32.9872 13.9996L32.9294 13.9174H32.9101L32.9005 13.8884L32.8427 13.7941L33.2376 13.9803C33.5917 14.3938 33.9144 14.534 34.2275 14.8773L34.2756 15.0224H34.2949L34.3142 15.2521L34.2949 15.2714ZM34.0637 16.2845L33.9481 16.2555L33.9674 16.2023L34.1215 16.1491L34.1311 16.1685L34.0637 16.2845ZM26.0776 15.1167L26.0174 14.974L26.2992 14.8677L26.3353 15.0659L26.0776 15.1167ZM24.1798 15.2618L24.0931 15.3851L23.6717 15.6656L23.0455 15.9122C22.6818 15.9726 22.4314 16.1588 22.1014 16.2652L21.6198 16.3982L21.0827 16.698L20.9575 16.7681C20.6131 16.8407 20.3024 16.9857 20.0447 17.1622L19.4474 17.421C18.9682 17.745 18.5082 18.1052 18.1758 18.5985L18.053 18.7315L17.6484 18.5985L17.54 18.4244L17.5039 18.3398L17.3762 18.185L17.3594 18.1222H17.3401L17.2438 17.9795L17.1571 17.8151L17.1089 17.6893L17.0319 17.5467L17.003 17.421H16.9837L16.9451 17.317L16.9355 17.2445H16.9162L16.8873 17.08L16.8584 16.9132H16.8392L16.8295 16.7681L16.8199 16.2845L16.8392 16.1298L16.8199 15.934V15.5713H16.8295L16.8584 15.448V15.0756H16.8392V14.8266H16.8584L16.8295 14.6089H16.8199L16.791 14.4566H16.7717V14.2487L16.8392 14.1979L17.068 14.0818L17.1089 14.0214L17.1667 13.9392V13.753H17.1956V13.6587H17.2149L17.2221 13.4725H17.2342L17.2221 13.2573L17.1571 12.9382L17.0222 12.7713L16.8199 12.6988V12.5344H16.8295L16.8392 12.4207H16.8584L16.8777 12.2853H16.897L17.1282 11.884L17.1667 11.7921L17.2149 11.7292L17.2992 11.5721L17.3594 11.5092L17.3762 11.4076H17.3979L17.369 11.2626L17.3401 11.2215L17.2823 11.1296L17.2342 11.0256H17.2438V10.9531H17.2534C17.2342 10.6847 17.2992 10.4477 17.2534 10.189L17.2727 10.1794L17.2631 10.1262H17.2727L17.2534 9.8481H17.2342L17.2149 9.69336H17.1956L17.1571 9.50718L17.1475 9.42497H17.1282L17.1089 9.26781H17.0897L17.08 9.04294C17.0222 8.81566 17.0608 8.47474 17.0511 8.19426L17.068 7.85334H17.08L17.1089 7.76146V7.40844H17.1282L17.1571 7.20292H17.1667V7.03609L17.2053 7.01674L17.2823 7.07961C17.41 7.39152 17.54 7.70101 17.7158 7.98632L17.7905 8.24504H17.8025L17.8483 8.41187H17.8675L17.9085 8.49408L17.9157 8.5376L17.935 8.68026L17.9446 8.68993H17.935V8.98975H17.9157L17.8892 9.21945L17.9085 9.22912H17.8892L17.9085 9.23879H17.8892V9.31133H17.9085V9.34034H17.8892V9.54586H17.8796L17.8675 9.7659H17.8483L17.8675 10.0971H17.8483V10.2809H17.8314L17.8218 10.6629H17.8122V10.9434H17.8314L17.8892 11.0039L18.0891 10.8177V10.779H18.0987V10.5493L18.1301 10.1987V10.1068H18.1397L18.1301 9.82876V9.6716H18.1397L18.1469 9.47333H18.1662L18.1975 9.28957V9.07196H18.2071L18.2168 8.78423H18.2264L18.2168 8.77214H18.2264L18.2529 8.23536H18.2625L18.2938 8.04919V7.96698H18.3107L18.3396 7.8219H18.3492L18.3781 7.66716H18.3878L18.4167 7.4302H18.4383V7.09895H18.4167V6.95388H18.4383L18.4287 6.94421H18.4383L18.4552 6.79913H18.4745L18.4937 6.6323H18.513L18.5419 6.49932H18.5515L18.5804 6.38809L18.6286 6.34457L18.802 6.56218L18.8309 6.66615L18.8887 6.75803L18.9272 6.83057L18.9754 6.98773H18.985L19.0332 7.07961L19.0621 7.18358L19.091 7.25612L19.1199 7.43988H19.1295L19.1681 7.53417L19.197 7.57286L19.2355 7.66716L19.2837 7.8219H19.3029L19.3222 7.93796H19.3415L19.3872 8.05886L19.486 8.22569L19.5245 8.33934L19.5341 8.43122H19.5534L19.5727 8.62948H19.5919L19.6112 8.92688C19.6281 9.24121 19.6449 9.60389 19.8593 9.8481L20.0351 10.0343C20.1868 10.2084 20.3409 10.3752 20.6299 10.4381L21.0345 10.7065L21.3139 10.9531L21.3813 11.0861H21.4006L21.4391 11.1586C21.6029 11.4584 21.6872 11.7534 21.8823 12.017L21.9786 12.1185C22.5277 13.1872 22.3061 12.6577 23.0262 13.3903L23.1322 13.5475L23.3152 13.9078H23.3249L23.373 14.0528L23.4116 14.1979H23.4308L23.479 14.3841H23.4983L23.5368 14.4663L23.6139 14.6089L23.6428 14.6718L23.6524 14.7032L24.1798 14.9595L24.2304 15.1675L24.1798 15.2618ZM16.6947 13.9174L16.6465 13.8352L16.6176 13.4725L16.6369 13.3178H16.6465L16.6778 13.1945L16.7525 13.0687L16.8392 12.9575L16.8777 13.0107L16.9259 13.0687L16.7525 13.4L16.8295 13.5064L16.9162 13.5862L16.9644 13.62L16.9548 13.7409H16.9355L16.8488 13.8666L16.6947 13.9174ZM2.57934 45.3574L2.94541 45.1107C3.2031 44.9536 3.48488 44.8182 3.74258 44.6538L3.89671 44.7601L3.90634 44.8303L3.92561 45.0479L3.96655 45.3477H3.97378V45.6572H3.96655L3.94488 46.0392L3.96655 46.1335H3.97378L4.01231 46.2979L4.02194 46.4309H4.04121L4.05085 46.929L4.08938 47.3425L4.12791 47.6592L4.13754 47.6737H4.12791L4.14718 47.7027H4.12791L4.13754 47.7221H4.12791L4.10864 47.8792L4.06048 47.93L3.99304 47.9203L3.84854 47.7027L3.82928 47.6592L3.68477 47.3908L3.57158 47.2578L3.48488 47.0741H3.47284L3.38614 46.929L3.34038 46.8855C3.26331 46.7235 3.03211 46.709 2.81777 46.7235C2.55044 46.7525 2.34814 46.854 2.09767 46.9169L1.77977 47.0837L1.2981 47.3207L1.16323 47.2893L1.14396 47.2071H1.1536L1.18491 47.0209L1.23067 46.9169L1.2692 46.854V46.7718L1.32941 46.709L1.39443 46.5252H1.40648L1.43297 46.4309C2.00615 45.6233 1.79904 46.2085 2.30961 45.5846L2.57934 45.3574ZM29.0399 13.9271L29.0712 13.9078L29.2037 13.8038H29.5986V13.8666L29.4758 13.9706L29.0399 14.0335V13.9271ZM44.3498 23.2167C44.1113 22.9991 43.8874 22.7621 43.7067 22.5131L43.5791 22.1117L43.4346 21.9956L43.3792 21.8941L43.331 21.6886L42.9553 21.1808C42.7265 21.0164 42.6085 20.7383 42.3412 20.6126L42.0233 20.3539L41.9559 20.2523L41.9824 20.2015L42.0402 20.1048V19.9525L41.638 19.6309L41.4333 19.423L40.9251 19.0023C40.6843 18.8862 40.4531 18.7532 40.1641 18.7532C39.904 18.6396 39.5957 18.6081 39.3548 18.4437L38.8467 18.2044L38.3554 17.8876L38.1531 17.7208L38.1242 17.5757L38.6636 17.699L38.9912 17.6797L39.0105 17.5467L38.943 17.4524L38.5191 17.3388L38.076 17.2759L37.7027 16.9857L37.7894 16.9229L38.4156 17.0389L38.6444 17.08C38.8563 17.1308 39.0683 17.2348 39.2995 17.2058L39.6535 17.0994L39.6053 17.0075C39.1236 16.9664 38.7215 16.7391 38.259 16.6787L37.8063 16.4997L38.0206 16.3861C38.2976 16.3571 38.5384 16.449 38.7889 16.449C39.2513 16.4997 39.6535 16.6545 40.0581 16.831L40.559 17.0704L40.7132 16.9857V16.8213L40.5879 16.7174L40.1641 16.3982C39.9136 16.449 39.7908 16.1927 39.5307 16.241C39.1357 16.1927 38.7504 16.0669 38.3385 16.108L37.8569 16.0355L37.7894 15.9436L37.8569 15.8808L38.2494 15.8517C38.4613 15.8179 38.6733 15.8179 38.8949 15.7986C39.2224 15.7478 39.6053 15.7671 39.9328 15.83L39.9907 15.7889V15.6849C39.5499 15.4891 39.049 15.6027 38.5673 15.5592L37.9893 15.593L37.9315 15.5205L38.3554 15.2811C38.6058 15.1385 38.9334 15.1167 39.1646 14.9305C39.3958 14.8266 39.6631 14.8169 39.9136 14.7975L40.4049 14.4445L40.4434 14.3744L40.5711 14.135L40.6746 13.9609L40.7035 13.7748H40.7132L40.7228 13.6394L40.7324 13.5161L40.7613 13.1848L40.771 12.8536L40.7999 12.8439L40.771 12.6263L40.7999 12.503V12.0895L40.7806 12.0702C40.771 11.8622 40.7806 11.5527 40.771 11.2843L40.8191 11.1586L40.7999 10.9434L40.8191 10.559L40.8384 10.2906L40.8577 10.2809C40.8577 10.0222 40.8673 9.78524 40.8769 9.53619L40.8577 9.42497C40.7902 9.06712 40.8456 8.09029 40.771 7.67925L40.7324 7.44955C40.7517 7.22227 40.6939 7.03608 40.7132 6.8088L40.6746 6.71693L40.6939 6.48964L40.6746 6.47997L40.6554 6.05684L40.6265 5.97463L40.5879 5.90209V5.66272L40.5711 5.65305L40.5398 5.35081L40.4723 5.20816L40.4531 5.00022L40.4242 4.78503L40.4049 4.51664V3.98954L40.376 3.97987L40.3953 3.9581L40.376 3.94843L40.3953 3.80335H40.3856L40.376 3.46243L40.3567 3.45034L40.3399 3.1336C40.2146 2.4711 40.1785 1.81101 39.9618 1.17027L39.8775 0.901879C39.7715 0.662507 39.7595 0.30224 39.586 0.103973L39.3958 4.8148e-06L38.8828 0.11606L38.8274 0.229704L38.7504 0.311913L38.6733 0.444894L38.5962 0.536779L38.471 0.756806L38.2976 1.1074L38.1338 1.45799L38.0375 1.62241L37.9315 1.81826L37.8665 1.90289L37.8063 1.99477C37.7124 2.24381 37.5076 2.40823 37.3752 2.62584L37.2861 2.783L37.0958 3.07073C36.4335 4.32079 35.8146 5.57568 35.1715 6.82089L35.1041 6.94421L35.0656 7.06994C34.6778 8.78907 34.0324 9.90613 33.2376 11.4608L33.216 11.5527L33.1293 11.6954L33.1774 11.8308L33.216 12.4111C33.3605 12.6359 33.582 12.8342 33.7458 13.0397L33.9481 13.3081C34.042 13.6442 34.3647 13.9271 34.3334 14.3019V14.4131L34.0926 14.2922L33.7747 14.0432C33.5917 13.8255 33.3243 13.649 33.0426 13.5354C32.9294 13.4338 32.833 13.2041 32.6115 13.3081L32.5248 13.4725L32.4381 13.5354L32.3032 13.7119C32.5609 13.9803 32.9294 14.1665 33.2063 14.4131L33.582 14.7443L33.9481 15.1578L34.266 15.3754L34.2949 15.477L34.3238 15.622L34.2949 15.6946L34.2178 15.7574L34.0252 15.6535L33.6398 15.344L33.3821 15.107C33.1702 14.9305 32.9101 14.8266 32.6885 14.6525L32.3393 14.725L32.5705 14.9499C32.7849 15.1385 33.0642 15.2303 33.2834 15.4069L33.3508 15.5398L33.2473 15.5205C32.8017 15.477 32.3995 15.315 31.9468 15.2618C31.7252 15.2714 31.5614 15.1167 31.3302 15.1481C31.0629 15.0031 30.7233 15.0853 30.456 14.9499L30.4151 14.9015L30.2826 14.8266C29.984 14.8773 29.695 14.8677 29.3891 14.8894L29.1844 14.8483L28.84 14.6912L28.8569 14.4566C28.8954 14.1761 29.2615 14.3502 29.406 14.1665C29.707 14.1568 29.9069 13.9174 30.2055 13.9174L30.2826 13.7627L29.8298 13.7119L29.8491 13.6684L29.9358 13.5862L30.4151 13.4L30.3693 13.3081L30.167 13.3395L29.8106 13.4846C29.5529 13.4725 29.3289 13.5257 29.0712 13.5354L28.8954 13.4218L28.7051 13.6829C28.6401 13.8401 28.8111 13.9295 28.6666 14.3115L28.6088 14.754L28.3174 14.8266C28.0115 14.8894 27.7032 14.8677 27.4046 14.9402L26.9061 15.0127L26.817 14.6912L26.8073 14.5074L26.8387 14.3019L26.8555 14.2922L26.8387 13.857L26.8555 13.7941L26.8387 13.7216L26.8555 13.5354L26.9061 13.4435L26.9254 13.2791L26.9422 13.0833L26.9615 12.9382L26.9326 12.8536L26.8844 12.6359L26.829 12.503L26.817 12.2346L26.3353 11.913L26.0294 11.676C25.8151 11.2626 25.8488 11.0014 25.9524 10.559L25.9909 10.4671L26.0583 10.3341C26.2053 9.9424 26.3522 9.56037 26.4533 9.15658L26.4798 8.98008L26.5978 8.44089H26.6075L26.6171 8.33934L26.6532 8.13381C26.8411 7.51241 27.0963 6.93454 27.3011 6.32523L27.3564 6.18982L27.3757 6.08585C27.9176 4.55532 28.3583 4.13219 29.1483 2.88455L29.4927 2.46142L29.7239 2.24381L29.8298 2.34536C29.9575 2.79751 30.0321 3.26175 30.1188 3.71873L30.0996 4.29903L30.0803 4.3087L30.1381 4.43443C30.1959 4.88658 30.2513 5.3363 30.273 5.78845L30.2826 6.14872C30.3452 6.4437 30.3693 6.54525 30.4151 6.862L30.456 6.97322V7.27546L30.4753 7.28513C30.456 7.55352 30.5138 7.76146 30.4945 8.02984L30.5138 8.1725L30.5596 8.3079V8.68026L30.5234 8.85435L30.5138 9.11306L30.4945 9.19527L30.4753 9.45399L30.456 9.47333L30.4464 9.72237L30.456 9.98109L30.4753 10.044L30.5138 10.1358L30.5331 10.4477L30.5596 10.5396L30.6005 10.6315L30.6198 10.808L30.6559 10.912L30.6776 11.3569H30.6679L30.6463 11.5624L30.4753 11.9759C30.2922 12.2128 30.0225 12.4401 29.6661 12.4304L29.1675 12.6698L28.9171 12.9164L28.8954 13.0591L28.9435 13.1316L28.9532 13.2888L29.0616 13.3516C29.2711 13.2888 29.4927 13.2573 29.707 13.1848L30.0225 13.1219L30.3693 13.0591L29.878 12.9043L29.6661 12.9164L29.6468 12.8536L30.1285 12.5948C30.3404 12.4594 30.5427 12.3168 30.7233 12.1427L30.8221 11.9662C31.0051 11.7776 30.9449 11.3569 30.9377 11.1102V10.9337L30.9088 10.7887L30.8678 10.6315V9.85778L30.851 9.8481L30.8004 9.68127V9.05262L30.8317 9.04294V8.81566L30.851 8.43122L30.8317 8.31757L30.7835 8.16283V7.48098L30.8004 7.47131L30.7835 7.37701C30.8341 6.8088 30.6776 6.26961 30.6559 5.71591L30.6366 5.56117C30.5114 5.19365 30.6342 5.07517 30.4945 4.78503L30.4753 4.53598L30.4271 4.3909C30.456 4.16604 30.3982 3.97986 30.4151 3.74291L30.3886 3.55673C30.3139 2.61617 30.1598 2.66694 30.0418 1.99477L29.9936 1.86178L29.5794 1.85211L29.3795 2.07698L29.0616 2.37922L29.0303 2.4179L29.0134 2.53396L28.9532 2.63551L28.8207 2.81202L28.5582 3.23515L28.3583 3.48419C27.985 3.81786 27.9585 4.22165 27.5876 4.67138L27.5684 4.78503L27.5106 4.91801C27.3131 5.58051 26.9639 6.1463 26.817 6.7677L26.711 6.98773L26.6942 7.09895L26.6339 7.24402L26.5882 7.30448C26.3787 8.06611 26.1426 8.25713 26.0583 9.13482L26.0294 9.35244L25.9909 9.42497C25.962 10.0343 25.3551 10.8419 25.5959 11.4076L25.6441 11.5334L25.7019 11.6446L25.8271 11.8622C25.9716 12.1088 26.2895 12.1306 26.5111 12.3071L26.711 12.4739L26.54 12.8124L26.2486 12.6891C25.9524 12.6359 25.7501 12.4207 25.5092 12.295L24.9601 12.1088L24.7506 12.2031L25.0011 12.4207C25.2323 12.4401 25.4514 12.5223 25.5959 12.6795L25.3936 12.8753L25.2491 13.0591L25.7886 13.0929C26.0391 13.1655 26.357 13.1123 26.5569 13.3178L26.5111 13.4725L25.9042 13.5257L25.6176 13.6297L25.5767 13.7022L25.9307 13.6829L26.4629 13.7022L26.4894 13.9174L26.3666 14.0528C26.1258 14.106 25.8753 14.135 25.6441 14.1979L25.5767 14.3309L25.7115 14.3744L26.2703 14.2076L26.4702 14.2584V14.4663L26.2799 14.6718L25.8464 14.8894L25.3093 15.107L24.9144 15.3343L24.6928 15.3537L24.7097 15.1264L24.7289 15.0031L24.7 14.8677L24.6639 14.754L24.3845 14.6089L23.8932 14.5171L23.874 14.4228L23.8354 14.2801L23.662 13.8038L23.6331 13.753L23.5464 13.5862C23.4597 13.2791 23.2093 13.1026 23.007 12.885L22.6409 12.5948C22.0195 11.7945 22.0027 11.4052 21.4873 10.6726L21.0249 10.2495C20.6588 10.1165 20.3024 9.93998 20.0736 9.64016L20.0543 9.50718L20.0351 9.37178L19.9869 9.23879L19.9773 8.92688L19.9267 8.75279V8.72136L19.946 8.50375L19.9098 8.4022L19.8689 8.31757L19.8328 8.15316L19.7822 8.09029L19.7268 7.88477L19.6786 7.8219L19.6184 7.66716L19.5149 7.50274L19.4643 7.33833L19.4571 7.20292L19.3993 7.09895L19.2355 6.66615L19.0621 6.36391L19.0139 6.22125L18.9754 6.08585L18.9272 5.99398L18.8502 5.77636L18.802 5.69657L18.5925 5.64338L18.4552 5.77636C18.2047 6.14388 18.1541 7.45438 18.0626 7.7808L17.9663 7.8219L17.8386 7.59704C17.6701 7.22468 17.5496 6.93695 17.4172 6.56218L17.2053 6.2817L17.0511 6.31555L17.003 6.44854L16.9644 6.6468L16.9355 6.77979L16.897 7.01674L16.8584 7.16182L16.8295 7.6454L16.8103 7.65749V7.88477L16.7717 8.09029V8.58596L16.791 8.59563L16.7717 8.6585V9.07196L16.791 9.08405L16.8103 9.40321C16.8777 9.63049 16.9403 9.84569 17.003 10.0754L16.9741 10.2906C17.003 10.559 16.9451 10.7887 16.9644 11.057L16.9837 11.2215H16.9909V11.5334C16.4274 12.5344 16.6008 12.2515 16.4538 13.0929L16.4466 13.4121L16.4153 13.4338L16.4466 13.5958C16.4514 13.9247 16.5261 14.3164 16.5598 14.6718L16.6008 14.8386C16.6008 15.0756 16.5791 15.2086 16.5887 15.4576L16.5598 15.4673L16.5405 15.622C16.4514 16.1056 16.4177 16.5989 16.6008 17.0704L16.6778 17.4113H16.685L16.7428 17.6289L16.9162 18.0399L17.0222 18.2576L17.186 18.5574L16.9355 18.8572L16.7236 19.0941L16.5694 19.053L16.5598 19.0845L16.502 19.053L16.2997 19.2271L16.2515 19.053L16.2732 18.8378L16.1287 18.7532L15.9553 19.0119L15.8469 19.2803L15.7891 19.394C15.3918 19.701 15.2569 20.3128 14.9438 20.7383L14.8378 20.881L14.7993 20.997C14.6741 21.3162 14.5031 21.6039 14.3586 21.9134L14.2044 22.1625L14.137 22.3511L14.0672 22.4429C13.5373 23.2215 13.2122 24.1185 13.0773 25.076L13.0292 25.2211L13.0099 25.5209H13.0003L12.9882 25.6249L12.9714 25.7264L12.9328 25.8207L12.9136 26.0891L12.8654 26.181L12.5668 26.6041L12.297 26.7613L11.931 26.9257C11.4589 27.0079 11.0182 27.1941 10.5847 27.3489L10.4113 27.4818C10.103 27.4939 9.9513 27.7309 9.74659 27.8856V27.9171L9.68879 28.0114L9.67193 28.1637L9.60209 28.2991L9.58523 28.6207V28.8165L9.60209 28.9519L9.63099 29.1042L9.62136 29.3847L9.52502 29.5927L9.3444 30.0351L9.27696 30.3132L9.2577 30.3567L9.10356 30.6783L8.97592 30.6541L8.65079 30.6638V30.6541L8.37142 30.5211L7.99572 30.6033L8.01499 30.7484L8.14986 30.821L8.67728 30.9757L9.06262 31.1619L9.12283 31.2755L9.171 31.4617V31.8026L9.14932 31.8969L9.08429 31.9888C8.79529 32.0275 8.52556 32.1121 8.25582 32.175C7.90902 32.2669 7.62002 32.4434 7.28285 32.5546L6.74338 32.8036L6.73615 32.939L6.79396 33.0841L7.28285 32.939L7.88253 32.6513C8.26546 32.5449 8.61226 32.3297 9.0265 32.2862L9.08429 32.3805L9.1132 32.5062L9.08429 32.661L9.04576 32.7529L9.0265 32.8665L8.97592 32.9487L8.93979 33.1034L8.92053 33.2606L8.88199 33.3307L8.83142 33.4855L8.44849 33.7539L8.30399 33.9618L8.81456 33.9086L9.0265 34.1165L9.04576 34.3438L9.08429 34.4478L9.12283 34.5711L9.171 34.6437L9.19026 34.8588L9.22639 34.9531L9.2577 35.0982L9.29382 35.1901L9.33476 35.3158L9.4022 35.4198L9.35403 35.5649C9.16136 35.6567 8.94943 35.7486 8.71823 35.7704L8.36179 35.9034L8.21729 36.0291L8.17876 36.1935L8.21729 36.4619L8.24619 36.5538L8.21729 36.5635L8.01499 36.8439L7.85122 37.197L7.71876 37.4315L7.44662 37.8063L7.13835 37.9707L6.70725 38.3817L6.56275 38.58L6.53385 38.6622L6.49532 38.7565L6.43511 38.858L6.06182 39.1796L5.92695 39.4287C5.83061 39.7261 5.49585 39.8397 5.35135 40.0984C5.28151 40.3257 4.99251 40.3451 4.89618 40.5433C4.64812 40.6981 4.49398 40.9254 4.27241 41.0994L3.91598 41.3799L3.57158 41.5443L3.71368 41.7934L3.50415 42.0835C3.27295 42.2262 3.10918 42.4027 2.96468 42.6106L2.80091 42.8161L2.81777 42.908L2.89484 43.1667L2.85871 43.2296L2.5095 43.631L2.40594 43.7761L2.24217 44.0444L2.21327 44.1895L2.26144 44.2717L2.24217 44.4482L2.03987 44.736L1.92427 44.9246L1.8183 45.0769L1.80867 45.222L1.7605 45.4081L1.7027 45.5943L1.33904 46.0174L1.26198 46.1335L1.22103 46.2351L0.934439 46.6485L0.826063 46.8976L0.809204 46.958L0.780304 47.1128L0.739364 47.2167L0.703238 47.3618L0.671928 47.6205L0.662295 47.9904L0.635804 48.0533L0.671928 48.1887L0.431094 48.4885C0.274552 49.0132 0.223976 48.8972 0.0770662 49.2623L0.113192 49.3251C0.27696 49.6177 0.15895 50.3866 0.0096327 50.6888L0 50.8847L0.0963339 50.9475L0.183035 50.7928L0.221568 50.6066L0.240834 50.4398L0.289002 50.3576L0.327535 50.2463L0.366068 50.0795L0.346803 49.7072L0.385336 49.5935L0.431094 49.4581L0.491302 49.3348L0.616537 49.1704V49.0253L0.604495 48.8923L0.635804 48.798L0.970565 48.3846L1.18491 48.1573L1.2403 48.063V48.0243L1.07653 47.7438L1.13433 47.7027C1.3848 47.6205 1.616 47.4537 1.89537 47.4343C2.16511 47.3086 2.46374 47.0305 2.79128 47.2071L3.28017 47.5988L3.38614 47.7559L3.42708 47.8671L3.46321 47.9711L3.81964 48.312L4.16644 48.2613L4.33985 47.9808L4.37838 47.8381L4.41691 47.7027L4.46508 47.5891V46.8976L4.43377 46.709L4.41691 46.5663L4.39765 46.3076H4.37838V44.9246L4.33985 44.7988L4.29168 44.6852L4.27241 44.5836L4.11828 44.3032L3.54027 44.4168L3.44394 44.5014L2.94541 44.7698C2.7407 44.8714 2.5962 45.089 2.36741 45.1011L2.45411 44.852L2.53117 44.6441L2.56971 44.4893L2.58657 44.2935C2.80091 44.1605 2.95505 43.9526 3.17661 43.8196L3.21274 43.7253L3.00321 43.7035L2.85871 43.7349L2.9141 43.6431L3.28017 43.2296C3.55954 43.0942 3.66551 42.8452 3.87744 42.6614L3.95451 42.3713L3.71368 42.3519V42.2987C4.58068 41.5443 4.48916 41.0608 5.77281 40.2338L6.29302 39.7067C6.50495 39.6971 6.53385 39.4794 6.69762 39.4045C6.99385 39.0442 7.50683 38.9523 7.89939 38.6622C8.25582 38.4446 8.66043 38.343 9.08429 38.2608L9.7201 38.094L10.0356 38.0311L10.0549 38.2608L10.2018 38.3092C10.498 38.476 10.8448 38.6211 11.2181 38.5897C11.4324 38.5075 11.7768 38.4663 11.9406 38.6404C12.1814 38.7033 12.3067 38.9088 12.5668 38.9427L12.9714 39.0781L13.3663 39.3851L13.6818 39.6632C13.8552 39.8615 14.1442 39.9316 14.2984 40.1613L14.6765 40.4079L15.0112 40.5941C15.2521 40.7077 15.4158 40.9157 15.6759 41.0076L15.8783 40.964L15.753 40.6981L15.2713 40.449L14.6765 40.0767C14.4236 39.9316 14.1731 39.7575 13.9829 39.5713L13.5277 39.1796L13.0292 38.8169C12.7787 38.7758 12.5571 38.6308 12.3163 38.5582C12.126 38.4978 11.9719 38.3624 11.7576 38.3213L11.2783 38.2995L10.8544 38.1133C10.6329 38.1665 10.6232 37.9175 10.4306 37.8885C10.1897 37.8667 9.92963 37.8353 9.67916 37.8667C9.42147 37.8353 9.24806 38.0843 8.99519 37.9707C8.78566 37.9803 8.60263 38.0843 8.40032 38.094C8.13059 38.198 7.88253 38.2995 7.65133 38.4663L7.27563 38.6622L6.87102 38.7565L6.89029 38.6211C7.03479 38.3527 7.35269 38.2705 7.56222 38.0408L7.65133 38.0311L7.90902 37.7337L7.94756 37.608L7.99572 37.5379L8.16912 37.3299L8.42922 36.9479L8.77603 36.6167L8.86273 36.4087L8.99519 36.2129L9.04576 36.0291C9.22639 35.8623 9.50817 35.8719 9.72973 35.7897L9.77549 35.7075L9.63099 35.4802L9.7201 35.1998C9.51057 34.4164 9.12524 34.0585 9.22639 33.0623L9.27696 32.968L9.29382 32.8254L9.33476 32.7117L9.35403 32.5788L9.4022 32.4627V32.2378L9.44073 32.0613L9.47927 31.7398L9.52502 31.6382V31.3988L9.47927 31.2755L9.44073 31.1304L9.45759 31.0047L9.49853 30.8089L9.4889 30.688H9.49853L9.50817 30.5622C9.78272 30.0811 9.6334 30.1439 9.8068 29.7982L10.0476 29.4984L9.9802 29.2904L9.91999 29.0438L9.8935 28.5046L10.1319 27.9291L10.4691 27.8373L10.9002 28.0815C11.182 28.1347 11.3168 28.4031 11.5095 28.5385L11.5577 28.6207L11.6998 28.8576L11.7672 29.0317L11.7407 29.0752V29.3847L11.8274 29.479L12.0755 29.3968V28.9713L12.0177 28.8165L11.9719 28.6811L11.8852 28.5167C11.7311 28.3305 11.5673 28.1347 11.3554 27.9993L11.2181 27.8856L10.8352 27.6293L11.2109 27.39L11.3554 27.4431L11.3722 27.5447C11.5962 27.7841 11.8081 27.3803 12.0755 27.4528L12.1429 27.5882V27.7019L12.3452 27.7115L12.9882 27.7526C13.2604 27.9074 12.8365 27.9582 12.8847 28.1443L13.4338 28.3208L13.4049 28.4127L13.3471 28.5046L13.3663 28.5989L13.6915 28.715L13.7998 28.6207L13.547 28.374L13.5975 28.1879L13.6144 28.1758L13.5975 28.1057L13.2604 27.639L13.164 27.506L12.8461 27.39L12.6149 27.2038L12.6535 26.916L13.164 26.5026L13.3061 26.5751L13.4506 26.5219L13.4699 26.4615L13.4916 26.1085L13.5277 26.048L13.547 25.8739L13.5975 25.6853L13.6144 25.533L13.6553 25.4701L13.6818 25.3033L13.7228 25.2018L13.6915 25.0349L13.547 25.1389L13.5108 25.2308L13.4916 25.3758L13.4506 25.4895L13.3663 25.8618L13.3182 25.9948L13.3061 25.9029L13.3471 25.7796V25.5088L13.3663 25.4992L13.3832 25.076L13.4241 24.9527C13.547 24.4982 13.5446 23.9807 13.8287 23.5987L13.9997 23.2674L14.1924 22.8032C14.5874 22.1214 14.9775 21.1373 15.3749 20.4989L15.5218 20.2209L15.647 20.0952L15.6374 20.3539L15.753 20.4458L15.8662 20.2209L16.0107 19.8703L16.0685 19.7542L16.1384 19.6527L16.2829 19.6019L16.4249 19.7639L16.6465 19.6624L17.003 19.1981L17.0415 19.1353L17.08 19.0434L17.3594 18.7653L17.9085 18.8378L17.935 18.8862L17.9856 19.0845L18.2842 18.9491C18.4383 18.7121 18.6575 18.5259 18.8309 18.3083C19.1392 18.0399 19.3993 17.7522 19.7726 17.5467L19.8689 17.566L20.2181 17.5128C20.4589 17.288 20.825 17.2058 21.0923 17.0293C21.285 16.8528 21.5836 16.7899 21.8245 16.6666C22.0364 16.5626 22.2869 16.5626 22.4868 16.4611C22.8528 16.3668 23.1322 16.1395 23.4694 16.0258C23.7487 15.9726 23.951 15.7768 24.2473 15.7889C24.5194 15.7381 24.7699 15.6027 25.0468 15.5713C25.3093 15.5398 25.5478 15.4069 25.8079 15.448L26.1715 15.3537C26.4027 15.2424 26.6653 15.2811 26.9254 15.2521C27.1349 15.1796 27.3878 15.1892 27.6069 15.1481C27.8959 15.0442 28.156 15.2303 28.445 15.1989C29.2711 15.107 30.0996 15.2521 30.8775 15.3972C31.1954 15.4891 31.5614 15.448 31.8793 15.5495L32.1202 15.5834L32.3995 15.622L32.544 15.8179L32.5151 15.9243L32.8017 16.1927L32.4573 16.3668L32.4477 16.4707C32.6476 16.6061 32.939 16.5215 33.1774 16.5433L33.6109 16.5723L34.0444 16.5529L34.1889 16.7585L34.3623 16.7899L34.4201 16.698L34.4394 16.5433L34.4779 16.3039C34.6562 15.7599 34.5695 15.0127 34.6706 14.5171V14.0528C33.4375 11.4173 33.0522 12.8801 34.3527 10.1697L34.4201 9.99318C34.4346 9.46849 34.9524 8.93414 34.9572 8.50375L34.9885 8.3079L35.0559 8.18459L35.0848 7.99841H35.1041L35.1113 7.91378C35.9278 5.43302 37.6281 2.9184 38.866 0.662505L39.1357 0.302242L39.509 0.343342L39.5499 0.868029L39.5692 0.877699L39.6174 1.05421L39.6727 1.18961L39.7137 1.29358L39.7594 1.44832L39.7811 1.6345L39.8172 1.85211L39.8462 2.13017L39.8847 2.28492V2.54363L39.904 2.56298L39.9328 2.945H39.9449L39.9618 3.28593C40.0268 3.42375 40.0749 3.77676 40.1352 3.86622V4.1467L40.1544 4.15637V5.03407L40.1761 5.05341L40.193 5.18881L40.2315 5.29278L40.2628 5.43786L40.2989 5.69657V6.06651L40.3399 6.17048L40.3664 6.38809L40.4049 6.55251L40.4242 6.7677L40.4723 6.83057L40.4434 6.89101L40.4723 7.12071L40.482 7.73002L40.5109 7.73969L40.5301 8.3079L40.559 8.5376H40.5711L40.5494 8.56662C40.5398 9.05503 40.6674 9.56763 40.6265 9.87712L40.6168 10.3027L40.5879 10.3123V10.5493L40.5494 10.7161V11.0039L40.5301 11.0135L40.5109 11.3569L40.5301 11.676V12.266L40.482 12.4014L40.5109 12.5537V12.8245L40.482 12.8439V13.1848L40.4723 13.4121L40.4242 13.5354L40.4049 13.7409L40.3664 13.8884L40.2989 14.106C40.1159 14.3938 39.7402 14.4977 39.3765 14.5074C39.1646 14.4977 39.0201 14.6621 38.8274 14.6912C38.6058 14.7975 38.3457 14.8169 38.0977 14.8773C37.8472 14.974 37.6353 15.1675 37.498 15.3851L37.4522 15.4987C37.5076 16.8068 36.8718 17.3653 36.8646 18.0617L36.9682 18.156L37.221 17.9698L37.2668 17.8876L37.3078 17.7619L37.6521 17.8538C37.9315 17.9166 38.1434 18.0714 38.3457 18.2382C38.7504 18.4631 39.1236 18.7653 39.586 18.8765L39.7594 18.9491C39.981 18.9805 40.1544 19.1062 40.376 19.1449C40.665 19.3432 41.0479 19.423 41.2791 19.6938L41.2526 19.8268L40.9251 19.88L40.7613 20.0033L41.1852 20.2523L41.8595 20.6343C42.2328 20.7577 42.4953 21.0357 42.7049 21.3041L42.753 21.4395L42.676 21.483C42.4833 21.4105 42.2714 21.3162 42.0498 21.338L41.8595 21.4709L42.1269 21.616C42.5026 21.6982 42.859 21.8844 43.0998 22.131L43.4755 22.5034L43.8199 22.8661L44.08 23.1538L44.3112 23.4125H44.4268L44.3498 23.2167Z" fill="white"/>
<path d="M18.4839 12.9725L18.5225 13.0354L18.5321 13.3135L18.5417 13.4779L18.5225 13.4996L18.2816 13.5722L18.1949 13.5093L18.1468 13.4053L18.0601 13.1176L18.1299 13.0354V13.0016L18.2335 12.9532L18.4839 12.9725Z" fill="white"/>
</g>
</g>
<defs>
<clipPath id="clip0_2121_92">
<rect width="118" height="57" fill="white"/>
</clipPath>
</defs>
</svg>
